<?xml version="1.0" encoding="UTF-8" standalone="no"?>
<!-- Created with Inkscape (http://www.inkscape.org/) -->

<svg
   version="1.1"
   id="svg15881"
   width="361.25284"
   height="254.45668"
   viewBox="0 0 361.25283 254.45668"
   sodipodi:docname="base_layer.svg"
   inkscape:version="1.1.1 (eb90963e84, 2021-10-02)"
   xmlns:inkscape="http://www.inkscape.org/namespaces/inkscape"
   xmlns:sodipodi="http://sodipodi.sourceforge.net/DTD/sodipodi-0.dtd"
   xmlns="http://www.w3.org/2000/svg"
   xmlns:svg="http://www.w3.org/2000/svg">
  <defs
     id="defs15885" />
  <sodipodi:namedview
     id="namedview15883"
     pagecolor="#ffffff"
     bordercolor="#ffffff"
     borderopacity="1"
     inkscape:pageshadow="0"
     inkscape:pageopacity="0.22745098"
     inkscape:pagecheckerboard="true"
     showgrid="false"
     inkscape:zoom="1.3481251"
     inkscape:cx="104.21882"
     inkscape:cy="141.67825"
     inkscape:window-width="1920"
     inkscape:window-height="1136"
     inkscape:window-x="0"
     inkscape:window-y="0"
     inkscape:window-maximized="1"
     inkscape:current-layer="g15887"
     borderlayer="true" />
  <g
     inkscape:groupmode="layer"
     inkscape:label="Image"
     id="g15887"
     transform="translate(228.42575,-40.296889)">
    <g
       id="g21357"
       transform="translate(-14.395235,14.799878)">
      <path
         style="fill:#ffeeb4;fill-opacity:1"
         d="m -86.58795,278.99559 c -21.3938,-3.38562 -39.12167,-7.88021 -47.09623,-11.94043 -8.18514,-4.16743 -35.26315,-23.60786 -37.72468,-27.08412 -1.32152,-1.86629 -1.67909,-4.66589 -1.67909,-13.14656 v -10.7753 l -6.45789,-4.49568 c -8.34839,-5.81178 -11.04211,-8.39008 -11.04211,-10.56902 0,-0.97167 -0.424,-2.02871 -0.94222,-2.34899 -0.51822,-0.32028 -1.2417,-2.5794 -1.60774,-5.02027 -0.58319,-3.88905 -0.22943,-5.21773 2.86027,-10.74263 1.93918,-3.46758 6.26266,-9.29151 9.60774,-12.94207 5.48385,-5.98466 6.08291,-7.06483 6.09172,-10.98406 0.014,-6.21483 3.76947,-13.46851 10.94399,-21.1381 5.88162,-6.28747 15.97349,-13.71478 22.54624,-16.59335 6.20215,-2.71626 15.40387,-5.12875 30.95821,-8.11654 8.82299,-1.69479 18.96679,-3.78551 22.54179,-4.64605 10.19588,-2.45426 35.60402,-2.87154 58.11656,-0.95445 37.86829,3.22473 42.51232,3.70927 53.88344,5.62191 14.69551,2.47182 35.17383,9.46693 41.64428,14.22511 8.51708,6.26321 18.7709,17.74461 22.31833,24.99027 2.74682,5.61041 3.18797,7.42139 2.64103,10.84177 -0.78817,4.92891 -3.60936,10.71601 -6.49723,13.32774 -2.75589,2.49236 -2.69001,2.91535 1.14359,7.34213 6.94777,8.02281 10.75545,14.74287 10.73918,18.95322 -0.0169,4.36386 -2.79338,12.46234 -5.12268,14.94177 -1.62857,1.73353 -1.96893,3.00014 -1.49189,5.5519 1.84725,9.88122 1.83236,10.4541 -0.40698,15.6596 -2.67763,6.22431 -8.04562,11.21778 -20.02518,18.62804 -24.82508,15.35616 -39.28026,19.0762 -83.47469,21.48221 -22.35998,1.21731 -64.59617,1.17764 -72.46776,-0.068 z"
         id="path21363" />
      <path
         style="fill:#f9e198;fill-opacity:1"
         d="m -79.58795,279.15068 c -8.46274,-1.01195 -30.2175,-5.45157 -39.88967,-8.14052 -9.90924,-2.75485 -20.43759,-8.30324 -31.62989,-16.66881 -4.96076,-3.70786 -11.37326,-8.42832 -14.25,-10.48991 -4.45662,-3.19378 -5.23044,-4.22686 -5.23044,-6.98282 v -3.23449 l 4.60794,5.26757 c 2.53437,2.89716 6.47187,6.20436 8.75,7.34933 2.27813,1.14498 4.83089,2.68479 5.67279,3.42182 2.47926,2.1704 27.01039,14.42939 28.81552,14.40003 1.15042,-0.0187 0.6463,-0.86278 -1.65632,-2.77327 -3.48672,-2.89293 -3.35674,-4.19983 0.41772,-4.19983 3.03434,0 3.36887,-0.89087 1.7675,-4.70695 -1.67207,-3.98458 -3.6568,-5.07362 -10.76999,-5.90964 l -5.60516,-0.65877 v 3.24609 c 0,3.02979 -0.18324,3.20341 -2.75,2.60561 -2.54323,-0.59232 -8.25,-5.97991 -8.25,-7.78857 0,-0.43327 1.2375,-0.80274 2.75,-0.82104 1.5125,-0.0183 3.82859,-0.93145 5.14687,-2.02922 l 2.39686,-1.99594 -2.32118,-2.47079 c -2.90022,-3.08714 -3.67518,-3.08369 -6.56013,0.0292 -1.27431,1.375 -2.90091,2.49832 -3.61467,2.49626 -1.98483,-0.006 -7.79028,-3.81321 -8.45487,-5.54511 -0.87325,-2.27566 -0.0348,-2.5883 3.57073,-1.33142 4.35355,1.51765 6.83805,-0.50325 2.59975,-2.11465 -3.3905,-1.28905 -8.16006,-4.95054 -14.33552,-11.00506 -2.52444,-2.475 -7.49935,-6.525 -11.05537,-9 -7.92993,-5.51926 -11.12615,-9.43087 -9.19475,-11.25272 1.05757,-0.99758 1.41759,-0.98638 1.79835,0.0559 0.92395,2.52926 11.34261,11.17334 16.27393,13.50204 0.825,0.38959 3.3,1.83432 5.5,3.21053 10.32616,6.4595 28.56524,14.59573 36.89757,16.45954 16.99866,3.80235 26.12619,4.43858 63.60243,4.43338 39.8125,-0.006 51.18446,-0.78542 71,-4.86915 19.80518,-4.08159 39.72931,-12.79306 52.9903,-23.16907 7.20343,-5.6363 10.35141,-9.77733 11.47592,-15.09608 1.15489,-5.46242 -0.34105,-5.81366 -5.0553,-1.18697 -3.08054,3.02332 -4.06631,4.62288 -3.36771,5.46464 3.08589,3.71827 -9.74612,14.44793 -17.27883,14.44793 -1.64382,0 -1.91453,-0.52359 -1.55107,-3 0.59141,-4.02954 -2.08379,-4.03673 -6.19626,-0.0167 -4.4355,4.33584 -8.34779,6.06195 -17.27008,7.61957 -9.77442,1.70639 -14.57547,3.81112 -22.05741,9.66974 -5.78116,4.52684 -5.85928,4.55274 -15.5,5.1388 -5.32926,0.32396 -15.31456,0.9779 -22.18956,1.45319 -13.93709,0.96352 -17.7744,0.21339 -11.78212,-2.30322 2.04484,-0.85877 5.70224,-1.56141 8.12756,-1.56141 2.61805,0 4.89522,-0.58505 5.60474,-1.43997 0.65728,-0.79198 2.17488,-1.57948 3.37244,-1.75 1.19756,-0.17048 1.95238,-0.76 1.67738,-1.31 -0.275,-0.55 -1.4,-0.87363 -2.5,-0.71919 -10.13484,1.42299 -13.65815,1.31186 -21.31256,-0.67226 -10.40852,-2.69802 -15.19436,-2.65577 -24.3098,0.21461 -16.466998,5.18533 -18.358621,5.54051 -30.03688,5.63985 -10.17326,0.0865 -12.24909,-0.18739 -16.28718,-2.14924 -3.92811,-1.90843 -4.93746,-2.05512 -6.67484,-0.97011 -2.47193,1.54374 -6.52273,0.76531 -9.70502,-1.86501 -2.70624,-2.23683 -2.09977,-3.97865 1.3853,-3.97865 2.86572,0 2.97622,-0.61981 0.86501,-4.85184 -1.94946,-3.90778 -3.64385,-4.84312 -10.39594,-5.73882 -5.31597,-0.70519 -5.31767,-0.70453 -4.824,1.87796 0.7502,3.92441 -0.64365,5.52986 -2.97178,3.42294 -1.03939,-0.94063 -2.35549,-1.71024 -2.92469,-1.71024 -1.65102,0 -6.33786,-5.14205 -5.67073,-6.2215 0.33312,-0.53899 1.89844,-0.72143 3.47849,-0.40542 2.27766,0.45553 3.19144,0.0883 4.41076,-1.77263 1.34989,-2.06019 2.51669,-2.40385 9.54265,-2.81057 8.64691,-0.50057 11.70004,-1.98714 8.67344,-4.22313 -1.21718,-0.89923 -3.8901,-1.14603 -8.69126,-0.80251 -5.54353,0.39664 -7.2603,0.16929 -8.56366,-1.13408 -0.89659,-0.89659 -2.66551,-1.63016 -3.93093,-1.63016 -1.91095,0 -2.40913,0.67771 -2.94039,4 -0.58584,3.66366 -0.89893,4 -3.72344,4 -3.4996,0 -8.89255,-3.3977 -8.89255,-5.60254 0,-1.17624 0.96385,-1.33849 4.87187,-0.82007 3.04648,0.40413 5.11771,0.24849 5.52801,-0.41538 0.83705,-1.3544 -2.49812,-3.16201 -5.83414,-3.16201 -2.59912,0 -2.94129,-0.63741 -2.59407,-4.83236 0.191,-2.30766 3.24096,-6.16764 4.87334,-6.16764 0.46476,0 1.58008,-0.81223 2.47848,-1.80496 1.51398,-1.67293 1.49858,-2.05697 -0.21048,-5.25 -1.18524,-2.21439 -1.6681,-4.63839 -1.35168,-6.78566 l 0.49227,-3.34061 5.1232,4.9916 c 6.21269,6.0531 12.85824,10.32396 28.9099,18.57937 19.60648,10.08367 27.93019,12.28373 55.7133,14.72575 17.14082,1.50661 75.89725,0.4866 90.46459,-1.57046 30.50439,-4.30753 56.22314,-14.77409 71.06571,-28.92104 7.01154,-6.68292 7.47415,-6.9575 7.472,-4.43481 -0.002,2.79906 -5.44155,10.00274 -11.28845,14.95056 l -3.11942,2.63975 2.52364,3.36025 c 3.9883,5.31047 4.00433,5.44905 1.02485,8.86159 -2.75374,3.15399 -5.77291,9.70202 -4.8835,10.59142 0.24366,0.24366 1.74747,-0.23726 3.3418,-1.0687 3.96376,-2.06712 7.0174,-1.90543 9.4217,0.49887 2.26732,2.26732 1.77587,3.98795 -2.1811,7.6362 -2.70717,2.49595 -14.67232,7.56367 -15.96782,6.76301 -0.4807,-0.29709 -0.874,-1.18861 -0.874,-1.98115 0,-1.98308 -0.22932,-1.90914 -6.48058,2.08975 -5.08477,3.25269 -6.92912,5.46927 -4.5508,5.46927 0.53273,0 0.73317,0.61354 0.44541,1.36343 -0.57999,1.51144 -11.4178,5.92488 -18.41403,7.49868 -6.64121,1.49393 -20.86559,7.01693 -18.23941,7.08193 2.73919,0.0678 19.18823,-3.52303 24.73941,-5.40063 7.52929,-2.54667 23.67586,-9.79522 29.11415,-13.06998 12.32094,-7.41929 21.75088,-17.33974 21.59786,-22.72132 -0.0666,-2.3427 0.15832,-2.79087 0.8595,-1.71259 2.08186,3.2015 -0.40154,10.65616 -5.74604,17.24847 -1.65594,2.04255 -2.10505,3.56413 -1.6797,5.69084 0.51438,2.57192 0.069,3.26341 -3.9066,6.0657 -4.2526,2.9975 -4.43049,3.31299 -3.40302,6.03509 0.96168,2.54778 0.76685,3.20343 -1.72468,5.80403 -3.31588,3.46104 -14.06591,8.53968 -16.2787,7.69055 -1.08247,-0.41538 -1.35779,-1.33837 -0.91979,-3.08352 0.89187,-3.55346 -1.34711,-3.22309 -6.32132,0.93274 -4.58545,3.83103 -7.78541,5.06791 -16.73785,6.46966 -7.86785,1.23193 -14.42951,4.24411 -21.12327,9.69681 -5.87474,4.78553 -6.87026,5.04414 -22.73054,5.90481 -6.05,0.32831 -14.94563,0.91684 -19.76807,1.30786 -8.76649,0.7108 -13.2213,0.23596 -10.95083,-1.16727 1.98259,-1.22531 10.60677,-3.61166 13.2189,-3.65773 2.53574,-0.0447 7.73732,-3.57357 6.73902,-4.57187 -0.29937,-0.29937 -2.33941,-0.006 -4.53341,0.65086 -3.02914,0.90755 -5.57937,0.92423 -10.59736,0.0693 -3.63454,-0.61923 -9.51773,-1.62326 -13.07377,-2.23119 -7.11757,-1.21681 -9.75353,-0.85876 -27.53448,3.74002 -13.29971,3.43979 -31.84295,4.01015 -36.25964,1.11531 -1.4685,-0.9625 -3.51868,-1.75 -4.55595,-1.75 -3.1701,0 -8.3988,2.18561 -7.46431,3.1201 1.25896,1.25896 14.53793,4.54764 23.2799,5.76551 27.34589,3.80964 80.32276,3.58295 109.34042,-0.46788 31.90265,-4.45357 61.32449,-18.15151 73.92595,-34.41773 2.14813,-2.77286 2.71376,-3.09815 2.72254,-1.56572 0.0198,3.45768 -3.92743,10.18271 -7.75231,13.20779 -6.4609,5.1099 -17.435,11.97831 -25.7366,16.10788 -15.03833,7.4807 -25.84189,10.37837 -45.5,12.20377 -6.875,0.63839 -16.1,1.56889 -20.5,2.06777 -10.93149,1.23945 -61.48194,1.98818 -69.5,1.02941 z m -0.62533,-18.13097 c 3.57509,-2.81217 2.51996,-3.91993 -3.73369,-3.91993 -6.95452,0 -10.233628,3.02233 -5.39098,4.96884 3.65389,1.46868 6.31261,1.16305 9.12467,-1.04891 z m 58.62533,-2.91993 c 0,-1.27768 -6.02294,-1.27768 -8,0 -1.08489,0.70111 -0.18547,0.97361 3.25,0.98469 2.6125,0.008 4.75,-0.43469 4.75,-0.98469 z m -72.080394,-1.97798 c 2.066034,-1.16025 1.079364,-1.52799 -9.419606,-3.51081 -13.36485,-2.52407 -15.4339,-1.84799 -8.75,2.85912 3.38853,2.38635 4.3688,2.58782 10.16961,2.09007 3.53078,-0.30297 7.13078,-0.95024 7.999996,-1.43838 z m 104.580394,0.97798 c 0.72336,-1.17042 -0.38967,-1.34911 -6.5,-1.04358 -7.07418,0.35373 -7.28836,2.04358 -0.25902,2.04358 3.37754,0 6.4191,-0.45 6.75902,-1 z m 5.22917,-13.60417 c -0.3323,-0.33229 -1.1948,-0.36781 -1.91667,-0.0789 -0.79773,0.31922 -0.56078,0.55618 0.60417,0.60416 1.05416,0.0434 1.64479,-0.19293 1.3125,-0.52522 z M -99.923402,225.03722 c 3.43857,-1.30734 4.560307,-2.96158 3.155805,-4.6539 -1.437414,-1.73198 -4.950313,-1.61547 -9.800113,0.32504 -6.04574,2.41902 -5.12001,4.66645 2.16466,5.25524 0.9267,0.0749 2.94254,-0.34197 4.479648,-0.92638 z m -8.849108,-7.5941 c 2.9235,-1.89787 5.13648,-3.98902 4.91773,-4.64701 -0.63185,-1.90061 -9.56985,-3.15716 -13.17762,-1.85258 -1.70709,0.61729 -5.90605,1.50558 -9.33102,1.97398 -3.42496,0.46839 -6.55739,1.18179 -6.96093,1.58534 -0.8179,0.8179 2.73644,3.80346 7.06868,5.93752 4.43937,2.18684 11.31265,1.00851 17.48316,-2.99725 z m 69.67365,3.2883 c 1.80809,-1.32211 1.79745,-1.40792 -0.31481,-2.53837 -1.67728,-0.89765 -3.17406,-0.88631 -6.43022,0.0487 -5.12863,1.47271 -5.10839,1.45952 -4.28518,2.7915 0.94643,1.53135 8.81776,1.31595 11.03021,-0.30183 z m 32.84325,-1.00655 c 1.74221,-0.76483 4.63016,-1.94795 6.41766,-2.62917 1.7875,-0.68121 3.25,-1.60778 3.25,-2.05906 0,-0.78321 -10.89192,-0.37882 -17.73785,0.65856 -3.32639,0.50406 -5.90319,3.55834 -4.67654,5.5431 0.83042,1.34365 8.24346,0.4635 12.74673,-1.51343 z M -122.7945,207.98012 c -0.20527,-0.61581 -3.18702,-2.17745 -6.62611,-3.47031 -5.38419,-2.02409 -6.33358,-2.1404 -6.83365,-0.83722 -0.31942,0.8324 -0.41267,1.64326 -0.20723,1.80191 3.39362,2.62073 6.07574,3.62528 9.67938,3.62528 2.77347,0 4.22497,-0.40756 3.98761,-1.11966 z m 45.70812,60.7454 c -1.09913,-0.80422 -1.74269,-1.71795 -1.43013,-2.03052 0.93421,-0.9342 12.35829,0.82139 12.39483,1.90478 0.0558,1.65464 -8.73732,1.75547 -10.9647,0.12574 z m 27.49843,0.0438 c -4.92368,-1.27963 -5.59702,-2.98002 -1.38595,-3.49995 3.01434,-0.37217 11.38595,2.505 11.38595,3.91314 0,1.21629 -4.43537,1.03303 -10,-0.41319 z m 78.25,-6.66284 c -3.43323,-1.43773 -2.7198,-2.69254 2.5,-4.39705 5.82352,-1.90166 18.25,-3.24321 18.25,-1.97025 0,1.13374 -11.41539,6.15788 -15.5,6.82186 -1.65,0.26822 -4.0125,0.0637 -5.25,-0.45456 z m -162.71466,-9.94949 c -1.03583,-1.67601 0.36334,-3.05719 3.097,-3.05719 1.85498,0 2.42684,0.45891 2.18077,1.75 -0.37516,1.96837 -4.27255,2.93367 -5.27777,1.30719 z m 40.76389,-19.16321 c -5.328831,-1.54108 -4.899552,-2.90036 0.89175,-2.82369 2.91996,0.0387 6.19898,0.41798 7.28672,0.84295 1.93287,0.75516 1.92869,0.7989 -0.18426,1.92972 -2.47948,1.32697 -3.55831,1.33386 -7.99421,0.051 z m 23.45077,-1.46595 c -3.8261,-2.0757 -3.43098,-3.42871 1,-3.42429 3.28125,0.003 10.25,3.05018 10.25,4.48156 0,1.14873 -8.68889,0.33215 -11.25,-1.05727 z m 80,-6.11736 c -4.47529,-1.16951 0.43473,-4.4363 9.25,-6.1543 14.49121,-2.82419 16.98511,-1.01377 5.08261,3.68967 -7.61122,3.00767 -10.41177,3.48926 -14.33261,2.46463 z M -152.2252,215.6027 c -0.34557,-0.90055 -0.16636,-2.09931 0.39825,-2.66392 1.6301,-1.6301 4.739,-0.53146 4.739,1.6747 0,2.54367 -4.22832,3.35787 -5.13725,0.98922 z M 82.66205,201.84743 c -4.20636,-1.34212 -4.10588,-2.4921 0.3816,-4.36708 4.10277,-1.71425 5.7235,-0.88076 5.20306,2.67577 -0.40405,2.76116 -1.34167,3.04512 -5.58466,1.69131 z m -159.75,-2.96087 c -1.65,-0.58043 -3.61476,-1.54337 -4.36613,-2.13987 -0.77125,-0.6123 -6.28698,-1.14914 -12.666993,-1.23287 -9.546677,-0.1253 -11.824867,-0.47217 -14.676567,-2.23462 -3.06598,-1.89488 -3.73007,-1.96445 -7.23848,-0.75832 -3.47415,1.19436 -4.19931,1.12943 -7.20732,-0.64534 -4.11669,-2.42891 -4.29525,-4.63561 -0.43752,-5.40716 2.72379,-0.54476 2.83379,-0.74799 1.74541,-3.225 -2.51741,-5.72934 -3.18596,-6.25282 -8.99191,-7.0407 -3.98595,-0.5409 -5.98255,-0.41977 -6.66661,0.40448 -0.53709,0.64715 -0.69131,1.46186 -0.3427,1.81046 0.3486,0.34861 0.0757,1.30638 -0.60655,2.12839 -1.09269,1.3166 -1.67523,1.2643 -4.8925,-0.43929 -6.7394,-3.56859 -8.74519,-9.12556 -2.75083,-7.62107 1.63117,0.4094 2.95619,-0.1375 4.61748,-1.90586 1.96884,-2.09574 3.24271,-2.48001 8.22128,-2.48001 3.24028,0 6.74388,-0.45622 7.78577,-1.01382 1.51509,-0.81086 6.97368,-1.56013 14.18969,-1.94775 0.39354,-0.0211 2.01678,-1.27593 3.6072,-2.78843 1.59042,-1.5125 3.70981,-3.22784 4.70977,-3.81186 2.12935,-1.24365 1.1996,-3.43814 -1.45665,-3.43814 -0.99337,0 -2.96253,0.90963 -4.37592,2.0214 -4.03473,3.17372 -9.42013,4.63303 -19.89123,5.39003 -7.51712,0.54344 -10.32143,0.38012 -12.5,-0.72801 -1.54478,-0.78575 -5.46674,-1.75216 -8.71546,-2.14757 -3.24873,-0.39542 -6.51123,-0.95089 -7.25,-1.23438 -3.14019,-1.20501 0.0886,-9.35664 4.67914,-11.81344 1.17857,-0.63075 3.11818,-2.8693 4.31024,-4.97455 1.87786,-3.3164 2.97188,-4.04671 8.18971,-5.46695 3.31228,-0.90157 8.54206,-3.08087 11.62173,-4.84288 6.50101,-3.7195 8.85348,-3.96884 11.35595,-1.20365 2.55305,2.82109 8.65758,2.69139 11.76702,-0.25 2.51585,-2.37988 5.24062,-9.11961 4.30134,-10.63939 -0.30628,-0.49557 0.15235,-1.17319 1.01917,-1.50582 2.394501,-0.91886 3.605082,-0.72546 2.873052,0.45899 -0.452819,0.73268 0.540377,0.81049 3.190983,0.25 2.116635,-0.44758 12.173435,-0.69983 22.348435,-0.56056 l 18.5,0.25322 4.33062,3.033 c 7.54584,5.28481 19.16938,6.52138 19.16938,2.03933 0,-1.21526 -1.15263,-2.3026 -3.25,-3.06589 -3.07816,-1.12024 -3.13467,-1.22811 -1.06871,-2.04019 1.97314,-0.77559 9.08014,-1.04629 27.06871,-1.03102 5.43843,0.005 6.25,0.24833 6.25,1.87683 0,4.64691 7.26806,7.08114 21,7.03338 10.3555,-0.036 22,3.13825 22,5.99717 0,2.98514 -2.25383,4.95668 -8.1589,7.13703 -3.11239,1.14919 -6.18863,2.72774 -6.83609,3.50788 -1.42467,1.71663 -0.51073,3.50049 1.80401,3.5211 0.93004,0.008 3.49098,0.66353 5.69098,1.4561 2.2,0.79258 5.92385,1.46081 8.27522,1.48495 3.8671,0.0397 4.89092,-0.52889 10.72478,-5.95611 3.54725,-3.3 7.11903,-6 7.93728,-6 2.32937,0 13.8369,11.85681 13.15061,13.54977 -2.02258,4.98937 -2.07237,4.79181 0.99769,3.95884 5.36739,-1.45627 6.89144,-1.17104 7.24908,1.35672 0.18407,1.30094 -0.0523,2.75235 -0.52534,3.22535 -1.12956,1.12956 -8.38088,-1.11359 -9.02486,-2.79178 -0.66766,-1.73988 -2.75303,-1.64415 -4.28064,0.1965 -0.68259,0.82247 -2.9932,2.02035 -5.1347,2.66196 -2.6278,0.78731 -5.10137,2.65813 -7.60863,5.7546 -2.04326,2.52342 -4.39386,5.10959 -5.22355,5.74705 -0.8297,0.63745 -6.01494,1.4619 -11.52274,1.8321 -12.11099,0.81402 -17.19065,2.09242 -20.56892,5.17658 -1.8254,1.66649 -3.75238,2.33231 -6.75,2.33231 -2.3074,0 -4.19528,-0.41701 -4.19528,-0.92669 0,-1.1056 9.50629,-5.58633 13.89868,-6.55106 1.70573,-0.37464 3.10132,-1.32041 3.10132,-2.1017 0,-2.00301 -16.72306,-1.98093 -21.53212,0.0284 -3.87901,1.62076 -4.61298,4.62823 -1.86938,7.65987 1.47578,1.63072 1.39938,2.02739 -0.99522,5.16686 -1.42654,1.8703 -2.29586,3.69838 -1.93183,4.06242 1.47639,1.47638 9.90654,0.59705 12.82855,-1.33812 1.65,-1.09275 3.98594,-1.98979 5.19098,-1.99341 1.20504,-0.004 2.48626,-0.48435 2.84714,-1.06827 0.95938,-1.55231 5.0739,-2.9229 10.34084,-3.44463 6.87228,-0.68075 19.95952,-3.33688 22.10867,-4.48707 2.51851,-1.34787 3.01237,-1.27275 3.01237,0.4582 0,2.34825 -9.26834,6.48167 -14.61973,6.52 -3.56783,0.0256 -13.97453,3.72726 -18.03703,6.41586 -2.11378,1.39891 -5.77789,4.00251 -8.14247,5.78577 -4.29667,3.24036 -4.30856,3.24272 -20,3.95782 -8.63542,0.39354 -19.01519,1.01533 -23.06615,1.38176 -5.75685,0.52073 -7.2724,0.3873 -6.93963,-0.61101 0.5897,-1.76909 6.48209,-3.7477 11.43257,-3.83894 2.3672,-0.0436 4.65848,-0.71581 5.37244,-1.57608 0.68469,-0.825 1.86479,-1.5 2.62244,-1.5 0.75766,0 1.37756,-0.42344 1.37756,-0.94098 0,-1.71216 -1.92645,-2.16875 -4.14371,-0.98211 -2.95966,1.58396 -14.72468,1.23363 -19.90074,-0.59259 -6.38147,-2.25152 -16.85837,-1.87385 -26.30917,0.94839 -4.48051,1.33799 -9.38388,2.69656 -10.89638,3.01905 -4.77604,1.01833 -2.99715,2.26546 4.25,2.97958 7.06138,0.69581 8.89213,1.82832 4.75,2.93837 -3.17141,0.84991 -6.75642,0.64602 -10.25,-0.58293 z m -2.39322,-8.67216 c 1.99611,-1.61636 2.13714,-2.11579 0.98834,-3.5 -1.81306,-2.18461 -5.35954,-2.03053 -10.20913,0.44354 -3.32038,1.69394 -3.82257,2.31333 -2.83772,3.5 1.76059,2.12138 9.23028,1.84662 12.05851,-0.44354 z m 56.95896,-2.1498 c 1.06384,-0.56936 1.93426,-1.69436 1.93426,-2.5 0,-1.7964 -6.10112,-2.01625 -9.24596,-0.33319 -2.04764,1.09587 -2.05533,1.17489 -0.24313,2.5 2.23102,1.63137 4.90852,1.74945 7.55483,0.33319 z m -67.90965,-4.06499 c 2.5664,-1.64684 4.93893,-3.70506 5.27229,-4.5738 1.58928,-4.14159 -5.2595,-5.68895 -12.210499,-2.75876 -2.044834,0.862 -6.769911,1.82849 -10.500171,2.14775 -3.73027,0.31926 -7.03618,0.99126 -7.34649,1.49334 -0.3103,0.50209 1.16673,2.47381 3.2823,4.38162 3.75918,3.39001 3.9939,3.45553 10.34144,2.88644 4.845733,-0.43445 7.679822,-1.34263 11.16113,-3.57659 z m 76.01517,-3.55482 c 1.00581,-0.91024 1.82874,-2.53532 1.82874,-3.61129 0,-1.71646 -0.45975,-1.87182 -3.75,-1.2672 -5.0652,0.9308 -5.9994,2.04792 -3.77138,4.50985 2.22251,2.45586 3.30858,2.52619 5.69264,0.36864 z m -18.29299,-2.49436 c 3.09195,-1.73214 6.74673,-4.17851 8.12173,-5.43638 3.35511,-3.0693 7.20891,-4.41427 12.64843,-4.41427 3.17985,0 4.38942,-0.37027 4.08337,-1.25 -0.65596,-1.88548 -15.64897,-1.36131 -19.60701,0.68547 -1.71864,0.88874 -3.12479,1.9821 -3.12479,2.42969 0,1.48363 -5.02872,3.13484 -9.54705,3.13484 -2.44912,0 -4.45295,-0.36161 -4.45295,-0.80359 0,-0.44197 2.6819,-2.80447 5.95979,-5.25 3.27788,-2.44552 5.97788,-5.00891 6,-5.69641 0.0605,-1.88135 -16.69973,-1.67443 -21.33767,0.26342 -5.12019,2.13935 -4.57646,4.17459 1.87788,7.029 5.99403,2.65084 7.06371,4.41432 2.75,4.53366 -4.26764,0.11806 -9.71541,2.42324 -10.07332,4.26245 -0.27037,1.38933 0.63051,1.67298 5.5,1.73176 3.20282,0.0386 6.72332,0.45702 7.82332,0.92971 3.79299,1.6299 7.77377,0.99035 13.37827,-2.14935 z m -35.8431,-0.39303 c 0.99142,-1.19458 1.01106,-1.81139 0.0871,-2.73535 -0.92396,-0.92396 -1.78703,-0.85803 -3.82744,0.29238 -1.44896,0.81694 -2.82056,2.04785 -3.04799,2.73535 -0.60819,1.8385 5.2285,1.5871 6.78833,-0.29238 z m -31.03517,-5.9194 c 5.033,-3.37932 8.96916,-3.93449 13.90195,-1.96078 4.39547,1.75872 11.41423,1.50637 13.40247,-0.48186 1.43384,-1.43384 0.8922,-1.82638 -5.73326,-4.15504 l -5.70942,-2.0067 -12.18087,2.44513 c -6.69948,1.34482 -14.30788,2.73571 -16.90756,3.09086 -2.59968,0.35515 -4.95157,1.00958 -5.22642,1.4543 -0.80679,1.30541 3.0986,4.25244 6.66215,5.02729 3.76184,0.81797 6.7984,-0.061 11.79096,-3.4132 z m 140.5691,-3.65002 c 0.59498,-0.96271 -1.10859,-2.85757 -2.5691,-2.85757 -0.275,0 -1.12015,0.39279 -1.87812,0.87288 -1.76814,1.11993 -0.5693,3.09649 1.87812,3.09649 1.03508,0 2.19118,-0.50031 2.5691,-1.1118 z m -103.69098,-7.79171 c 2.06046,-1.30508 0.3989,-3.09649 -2.87204,-3.09649 -3.86962,0 -8.27327,1.75866 -7.50724,2.99813 0.75899,1.22807 8.48016,1.30124 10.37928,0.0984 z M 37.41205,157.7247 c 1.375,-0.62901 2.6354,-2.08786 2.80089,-3.24189 0.61546,-4.29187 -10.70589,-6.05098 -18.55089,-2.88242 -5.08428,2.05351 -5.40787,3.824 -1,5.47142 1.7875,0.66807 4.15,1.59125 5.25,2.05151 2.28604,0.95652 7.82401,0.283 11.5,-1.39862 z m -159.78393,-3.06383 c 1.80616,-0.7914 4.53983,-1.70459 6.07483,-2.02932 5.94857,-1.2584 1.09346,-2.53109 -9.59992,-2.51646 -13.07084,0.0179 -15.14621,0.73562 -11.02087,3.8114 3.3704,2.51292 9.75165,2.83509 14.54596,0.73438 z m 182.24702,-0.16704 c 3.74081,-3.7408 -4.51446,-6.14765 -9.38497,-2.73621 -2.25996,1.58293 -2.28397,1.71847 -0.53138,3 2.50907,1.83467 7.96297,1.68959 9.91635,-0.26379 z m -64.22887,-3.39772 3.26578,-3.00367 -2.80576,-2.49633 c -3.24435,-2.88654 -8.65676,-3.23727 -17.63139,-1.14252 -8.55231,1.99617 -8.0547,3.48854 2.43715,7.30916 8.3018,3.02311 10.84774,2.90792 14.73422,-0.66664 z m -84.48422,-1.98537 c 3.90805,-2.38279 4.10171,-3.73664 0.71847,-5.02295 -3.25582,-1.23786 -12.96847,0.10142 -12.96847,1.78822 0,1.43259 5.261634,5.04343 7.5,5.14693 0.825,0.0382 2.9625,-0.82234 4.75,-1.9122 z m -35.82733,-3.89356 c 3.70888,-2.62975 4.88706,-4.97688 3.07733,-6.13055 -2.02936,-1.29368 -15.64722,-1.24602 -18.09375,0.0633 -2.49934,1.3376 -1.81574,2.37567 3.93782,5.9798 4.91227,3.07712 6.8406,3.09234 11.0786,0.0874 z m 16.57733,1.8618 c 1.97345,-0.0422 1.97423,-0.0623 0.0589,-1.511 -2.59389,-1.96192 -11.55887,-2.00189 -11.55887,-0.0515 0,1.95449 1.87481,2.59856 6,2.06123 1.925,-0.25074 4.4,-0.47515 5.5,-0.4987 z M 62.22389,144.8383 c 0.22855,-1.18678 -0.30446,-1.73852 -1.6795,-1.73852 -2.29335,0 -3.56338,1.49355 -2.59812,3.05537 0.97327,1.57479 3.89389,0.67569 4.27762,-1.31685 z m -121.77667,-2.2809 c 1.78868,-2.15523 -0.17182,-3.89112 -3.46195,-3.06535 -3.91075,0.98153 -3.15351,4.23416 1.05434,4.52878 0.62015,0.0434 1.70358,-0.61512 2.40761,-1.46343 z m 78.12728,-1.56187 c 4.89821,-3.14317 6.33987,-6.38203 3.35121,-7.52888 -0.81748,-0.3137 -4.07998,-0.0467 -7.25,0.59334 -3.17001,0.64003 -7.33866,1.38862 -9.26366,1.66352 l -3.5,0.49982 2.35534,-1.89553 c 3.0512,-2.45555 2.47297,-5.36267 -1.26549,-6.36245 -4.04578,-1.08197 -18.58985,0.13862 -18.58985,1.56012 0,1.38546 11.64206,6.5746 14.75,6.57443 1.55074,-8e-5 2.25,0.59552 2.25,1.91647 0,2.70612 4.87188,6.01422 8.91245,6.05173 2.15299,0.02 5.1979,-1.11404 8.25,-3.07257 z m -48.222,0.3527 c 1.89225,-0.96165 3.60358,-2.26996 3.80297,-2.90736 0.47836,-1.52924 -4.95384,-2.67342 -8.74218,-1.84136 -3.04192,0.66812 -6.34619,4.13312 -5.40052,5.66324 0.88598,1.43355 6.73783,0.91597 10.33973,-0.91452 z m -65.50555,-2.2237 c 1.410805,-0.53639 2.5651,-1.66139 2.5651,-2.5 0,-1.21725 -1.361273,-1.52166 -6.75,-1.50944 -12.50462,0.0284 -12.55438,3.72423 -0.0651,4.83486 0.926696,0.0824 2.839196,-0.28903 4.25,-0.82542 z m 18.5651,-7.41776 c 0,-1.31616 -0.67992,-2.65392 -1.51094,-2.97281 -1.96493,-0.75402 -7.35038,0.33241 -8.16264,1.64669 -0.97644,1.57991 2.6845,3.71913 6.36471,3.71913 2.82335,0 3.30887,-0.35114 3.30887,-2.39301 z m 28.5,-3.57518 c 0,-3.61215 -6.40646,-6.99395 -13.28984,-7.01536 -5.69392,-0.0177 -13.63843,3.19874 -12.95618,5.24549 0.79075,2.37224 10.02924,4.61133 18.24602,4.4222 7.78943,-0.17929 8,-0.24911 8,-2.65233 z m -40.94113,-1.51281 c 1.68015,-1.28188 1.73946,-1.61594 0.44113,-2.48468 -2.63556,-1.76353 -8.817312,-1.24419 -9.929632,0.8342 -0.55,1.02768 -0.715833,2.15268 -0.368518,2.5 1.203689,1.20369 7.92516,0.6244 9.85702,-0.84952 z m 80.99498,-2.60613 c 1.09049,-1.76446 -1.20415,-3.21746 -3.98063,-2.5206 -3.63082,0.91127 -3.35594,3.60773 0.36776,3.60773 1.61754,0 3.24333,-0.48921 3.61287,-1.08713 z m -70.05385,-1.91287 c 0,-1.65094 -3.68664,-2.53002 -6.32273,-1.50766 -1.5122,0.58648 -1.48115,0.79481 0.31547,2.11682 2.44032,1.79566 6.00726,1.43396 6.00726,-0.60916 z m 29.57432,76.66952 c -5.01134,-1.32429 -6.33817,-3.19477 -2.75245,-3.88022 2.7526,-0.52619 10.89674,2.36653 11.46536,4.07239 0.47347,1.42041 -2.89149,1.34619 -8.71291,-0.19217 z m 76.27076,-8.21265 c -0.8023,-2.09075 -0.35969,-2.39062 5.80783,-3.93475 8.77995,-2.19819 17.14519,-2.91642 16.64955,-1.42951 -0.4869,1.4607 -1.32351,1.91502 -8.82179,4.79068 -6.6139,2.53649 -12.78278,2.79599 -13.63559,0.57358 z m -210.34508,-6.02642 c 0,-1.04234 0.72946,-1.46222 2.17167,-1.25 3.2015,0.47108 3.54438,2.81955 0.41166,2.81955 -1.6805,0 -2.58333,-0.54853 -2.58333,-1.56955 z m 49.55173,-1.76897 c -2.14084,-1.56542 -1.31176,-3.66148 1.44827,-3.66148 2.57841,0 3.53545,1.89312 1.82283,3.60574 -1.19531,1.19531 -1.70087,1.20393 -3.2711,0.0557 z m -43.55173,-4.00649 c 0,-0.73976 0.91063,-2.16913 2.02363,-3.17637 2.6455,-2.39415 4.72257,-0.74142 3.03383,2.41402 -1.24294,2.32244 -5.05746,2.89743 -5.05746,0.76235 z m 239.25,-0.3819 c -1.6893,-0.5943 -1.5874,-4.74818 0.15189,-6.19166 0.77103,-0.63991 1.65887,-2.18739 1.97297,-3.43885 0.83453,-3.32505 9.72681,-7.34321 13.40209,-6.05602 3.73232,1.30716 3.94371,4.42005 0.53185,7.83191 -4.08973,4.08973 -13.57416,8.72872 -16.0588,7.85462 z m -215.2369,-10.07709 c -3.19577,-0.51041 -8.0131,-3.93224 -8.0131,-5.69184 0,-1.04777 1.31896,-1.24252 5.75,-0.84899 7.68897,0.68287 8.18061,0.89416 7.56431,3.2509 -0.72143,2.75876 -2.33952,3.76295 -5.30121,3.28993 z m -10.7631,-17.446 c 0.54077,-1.6223 3.95923,-1.6223 4.5,0 0.26389,0.79167 -0.56111,1.25 -2.25,1.25 -1.68889,0 -2.51389,-0.45833 -2.25,-1.25 z m 4.75,-5.0083 c 0,-1.66185 4.13154,-5.7417 5.81445,-5.7417 1.51954,0 1.46971,2.04339 -0.10009,4.10448 -1.73956,2.28397 -5.71436,3.42279 -5.71436,1.63722 z m 199,-3.16014 c 0,-0.78014 1.59798,-2.40605 3.55107,-3.61312 3.89654,-2.4082 6.9485,-6.3511 6.04614,-7.81116 -0.31636,-0.51187 0.11564,-1.504 0.95998,-2.20475 1.26743,-1.05186 2.00674,-0.92233 4.23899,0.74268 1.4871,1.10921 2.83517,2.68312 2.99572,3.49758 0.4224,2.14292 -11.63598,10.80721 -15.04075,10.80721 -1.70849,0 -2.75115,-0.53757 -2.75115,-1.41844 z m -186.4324,-8.47218 c -0.77217,-1.2494 4.28967,-4.37813 6.01319,-3.71675 1.90635,0.73153 1.80417,3.24567 -0.16258,4.00038 -2.30341,0.8839 -5.21631,0.74269 -5.85061,-0.28363 z m 6.4324,-7.02993 c 0,-0.50629 1.35,-1.18129 3,-1.5 1.65,-0.31869 4.35,-0.84021 6,-1.1589 3.98223,-0.76918 3.87103,1.08016 -0.14922,2.48162 -3.83314,1.33624 -8.85078,1.43675 -8.85078,0.17728 z m 21.573,-3.60092 c -1.05985,-0.80183 -1.64806,-1.7368 -1.30714,-2.07772 0.74804,-0.74804 15.05753,-2.40269 15.65475,-1.8102 0.23134,0.2295 -0.63461,1.5405 -1.92431,2.91333 -2.72262,2.8981 -9.20829,3.40689 -12.4233,0.97459 z m 146.09284,0.85398 c -0.36712,-0.36712 -3.18398,-1.00898 -6.2597,-1.42637 -6.09895,-0.82765 -6.94196,-1.23015 -5.94726,-2.83961 1.0015,-1.62045 15.7649,-1.3546 18.06224,0.32526 1.61719,1.18252 1.7027,1.6336 0.56869,3 -1.34345,1.61876 -5.18358,2.1811 -6.42397,0.94072 z m -77.69948,-7.1528 c -2.44982,-1.08577 -6.38688,-4.09769 -5.90603,-4.51822 0.24182,-0.21148 4.39554,-0.16444 9.23049,0.10454 5.86909,0.32652 8.66813,0.86212 8.42167,1.61151 -0.20303,0.61735 -1.4589,1.27306 -2.79082,1.45714 -1.33192,0.18407 -2.84917,0.74657 -3.37167,1.25 -1.08628,1.04663 -3.34964,1.08515 -5.58364,0.095 z m -25.46636,-4.17971 c 0.33992,-0.55 1.29303,-1 2.11803,-1 0.825,0 1.22189,0.45 0.88197,1 -0.33992,0.55 -1.29303,1 -2.11803,1 -0.825,0 -1.22189,-0.45 -0.88197,-1 z"
         id="path21361" />
      <path
         style="fill:#937311"
         d="m -78.08795,255.59949 c -10.37816,-1.26056 -31.12132,-5.41887 -39.61778,-7.94205 -6.08505,-1.80706 -18.13423,-8.07365 -20.45543,-10.63855 -2.1648,-2.39208 -1.2815,-2.44794 7.57321,-0.47897 27.16675,6.04091 37.09854,6.77613 76.00932,5.62672 50.99388,-1.50635 69.52205,-4.17975 87.99068,-12.69604 19.35013,-8.92276 37,-21.92472 37,-27.25642 0,-0.95268 0.6819,-2.60565 1.51534,-3.67327 1.42961,-1.83132 1.4773,-1.7746 0.84296,1.00262 -1.35757,5.94364 -4.35767,12.92726 -6.57819,15.31269 -2.76808,2.97366 -19.37645,14.02561 -26.28011,17.48796 -21.24596,10.65535 -52.40475,15.14164 -105.66607,15.21396 -16.86634,0.0229 -30.560841,0.14714 -30.432231,0.27607 0.12861,0.12894 3.803341,1.02894 8.166071,2 15.04996,3.34984 88.7867,1.90126 114.93223,-2.25788 18.5569,-2.95196 33.98082,-9.12775 51.27669,-20.53134 6.82747,-4.50151 9.22331,-5.27285 9.22331,-2.96944 0,1.77547 -16.57928,12.37864 -28.31255,18.10711 -16.28286,7.94969 -26.94311,10.26404 -56.68745,12.30693 -30.79536,2.11507 -68.00105,2.62805 -80.5,1.1099 z m -4.5,-41.15383 c -2.3732,-0.41073 -14.778754,-2.92767 -29,-5.88376 -14.50878,-3.01585 -23.71932,-7.6959 -42.57935,-21.63539 -9.52862,-7.04262 -12.10498,-9.47573 -11.09891,-10.48181 1.04479,-1.04479 6.98412,2.32864 16.21049,9.20726 14.54665,10.8451 21.82287,13.97101 42.53759,18.2744 24.05935,4.99823 31.30379,5.55049 63.4218,4.83474 25.7454,-0.57373 58.58464,-2.63935 67.00838,-4.21489 12.92107,-2.4167 21.51165,-5.31183 32.86081,-11.07449 6.74366,-3.42417 9.85459,-3.83974 6.06619,-0.81035 -8.45787,6.76333 -18.40406,11.6094 -32.927,16.04298 -6.48209,1.97886 -13.02807,2.80304 -34.5,4.34378 -23.9985,1.72204 -71.23486,2.56837 -78,1.39753 z"
         id="path21359" />
    </g>
    <g
       id="g21199"
       transform="matrix(-1.3645489,0.05365386,-0.05365386,-1.3645489,362.68158,369.55114)"
       inkscape:transform-center-x="8.504288"
       inkscape:transform-center-y="39.308065">
      <path
         style="fill:#eb9898;stroke-width:0.226266"
         d="m 191.31165,216.46771 c -1.87858,-0.18787 -1.99419,-0.68308 -0.68323,-2.92647 l 0.90506,-1.54879 v -2.56772 c 0,-2.36529 -0.0549,-2.69558 -0.69638,-4.18951 -1.46267,-3.40639 -2.55611,-5.58143 -2.80593,-5.58143 -0.14274,0 -0.55859,0.31332 -0.9241,0.69626 -2.39369,2.50783 -9.63812,5.44212 -14.46676,5.85963 -1.24446,0.10761 -2.51721,0.26176 -2.82833,0.34256 -0.94678,0.2459 -1.95776,-0.6949 -4.2192,-3.92631 -2.43368,-3.47752 -2.54594,-3.90802 -1.25203,-4.80147 1.14861,-0.79312 2.0067,-2.61339 3.45753,-7.33442 l 1.18208,-3.84651 -0.0394,-3.6623 -0.0394,-3.6623 -1.67752,-2.24342 c -1.69806,-2.27089 -2.32293,-2.7605 -3.96634,-3.10776 -1.25029,-0.26419 -1.5916,-0.57866 -1.5886,-1.46368 0.0135,-3.99578 3.29003,-7.1744 8.84281,-8.57858 1.8091,-0.45748 1.92918,-0.53041 3.6961,-2.24476 3.02714,-2.93706 6.19988,-4.80907 10.58529,-6.24563 1.30013,-0.42589 2.91068,-1.09675 3.579,-1.49081 10.8083,-6.3728 25.641,-9.95595 41.17377,-9.94638 6.7681,0.004 11.26025,0.76327 16.17798,2.73382 5.9907,2.4005 11.08496,6.22013 14.73219,11.04608 1.81692,2.40411 3.92808,6.55007 4.85561,9.53562 l 0.70186,2.25914 1.10575,0.56032 1.10575,0.56033 0.7415,-0.82137 c 2.07265,-2.29593 5.60161,-3.19327 7.30105,-1.85649 2.34811,1.84703 1.32191,5.40619 -2.03906,7.07209 l -1.12652,0.55837 1.16019,0.0119 c 1.23365,0.0127 1.76236,0.36157 1.63025,1.07581 -0.23469,1.26883 -4.66511,1.8086 -6.40511,0.78034 -0.94637,-0.55925 -1.36877,-1.03429 -1.93096,-2.17155 -0.18784,-0.37998 -0.44239,-0.69088 -0.56566,-0.69088 -0.13302,0 -0.27928,1.47176 -0.35977,3.62025 -0.23406,6.24739 -1.28813,9.41647 -5.98304,17.98811 -1.58591,2.89544 -1.71977,3.41104 -2.24371,8.6427 -0.24638,2.46008 -0.47738,3.66839 -0.88769,4.64325 -0.30506,0.72479 -0.82816,2.28292 -1.16245,3.46251 -0.752,2.65359 -1.01493,3.0791 -2.08651,3.37668 -1.38362,0.38425 -5.74458,0.30624 -6.3438,-0.11347 -0.66249,-0.46403 -0.63727,-0.74236 0.21451,-2.36732 0.46716,-0.89121 0.75399,-1.81007 0.82235,-2.63435 0.15915,-1.9192 -0.31031,-1.47408 -1.48197,1.40511 -1.13116,2.77964 -1.58854,3.39725 -2.75615,3.7216 -1.04145,0.28931 -5.24231,0.29388 -5.99811,0.007 -0.83554,-0.31767 -0.74684,-1.09039 0.31347,-2.7309 1.52363,-2.35735 1.52459,-4.17128 0.004,-7.4724 -0.53637,-1.1644 -1.20771,-2.78267 -1.49187,-3.59616 -0.38913,-1.11401 -0.64484,-1.51538 -1.03605,-1.62621 -1.66046,-0.4704 -11.27045,0.0763 -21.5621,1.22656 l -2.48892,0.27818 -0.35581,1.81012 c -0.46462,2.3637 -0.80847,3.39996 -1.53599,4.62902 -0.32841,0.55483 -1.05531,2.27626 -1.61531,3.8254 -1.31495,3.63752 -1.43462,3.73584 -4.67549,3.84169 -2.96633,0.0969 -3.82293,-0.0547 -4.28379,-0.75806 -0.33402,-0.50978 -0.3161,-0.66363 0.27009,-2.31855 0.38252,-1.07991 0.56429,-1.93818 0.46519,-2.19644 -0.22063,-0.57496 -0.39965,-0.36284 -1.8153,2.15109 -1.58722,2.81858 -1.8734,3.01334 -4.50101,3.06311 -1.14962,0.0218 -2.5464,-0.006 -3.10397,-0.0618 z m 82.07338,-45.01611 c 0.58629,-0.36586 0.6696,-0.75979 0.16069,-0.75979 -0.56697,0 -2.16812,0.9036 -2.0215,1.14083 0.16218,0.26241 1.15574,0.059 1.86081,-0.38104 z"
         id="path21205" />
      <path
         style="fill:#e27171;stroke-width:0.226266"
         d="m 190.45872,216.03019 c -0.4866,-0.2116 -0.31459,-0.88646 0.63531,-2.49254 l 0.91813,-1.55238 -0.0798,-2.82832 c -0.0673,-2.38289 -0.16304,-3.00649 -0.60812,-3.95965 -2.22916,-4.77383 -2.95755,-6.2223 -3.12899,-6.2223 -0.10852,0 -0.49637,0.31357 -0.86188,0.69683 -1.6367,1.71618 -5.22081,3.63772 -9.14952,4.9053 -2.87747,0.92841 -3.16801,0.98977 -5.65663,1.19459 -1.18224,0.0973 -2.41167,0.24542 -2.73207,0.32914 -0.83611,0.21847 -1.66133,-0.55992 -3.78979,-3.57473 -2.60084,-3.68391 -2.51974,-3.41599 -1.34653,-4.4487 1.28488,-1.13099 2.16121,-2.95915 3.49343,-7.28778 l 1.06713,-3.46733 0.0888,-4.0427 0.0888,-4.04271 -0.65906,-0.70887 c -0.36249,-0.38988 -1.12852,-1.38049 -1.7023,-2.20136 -1.2447,-1.78072 -1.82593,-2.19492 -3.77761,-2.69202 l -1.47834,-0.37654 0.0117,-1.01667 c 0.0408,-3.547 4.28717,-7.21821 9.46219,-8.18061 1.2961,-0.24103 1.48416,-0.36149 3.0806,-1.97328 2.72945,-2.75567 6.42506,-4.95629 10.41146,-6.1997 1.0578,-0.32994 2.33054,-0.8141 2.82832,-1.0759 0.49779,-0.2618 2.04394,-1.0759 3.4359,-1.8091 8.6264,-4.54385 19.35987,-7.44261 30.84333,-8.32976 11.89385,-0.91886 18.99227,0.0594 26.36651,3.63353 7.98837,3.87182 13.98034,10.60399 16.50035,18.53866 0.33594,1.05779 0.70097,2.14869 0.81117,2.4242 0.18679,0.46704 2.14119,1.64858 2.72692,1.64858 0.14401,0 0.65056,-0.44162 1.12568,-0.98138 1.24833,-1.41818 3.23413,-2.26758 5.00231,-2.13968 1.18371,0.0856 1.43957,0.19533 2.17825,0.93401 0.73136,0.73136 0.8365,0.97217 0.83303,1.90799 -0.008,2.05276 -1.75401,3.79796 -4.5289,4.52576 -0.80474,0.21107 -1.46317,0.45998 -1.46317,0.55314 0,0.31529 1.15069,0.46053 2.46797,0.3115 1.04786,-0.11855 1.37048,-0.0765 1.60809,0.20985 1.03853,1.25136 -3.77582,2.03575 -5.8779,0.95768 -0.73882,-0.37891 -1.14265,-0.79841 -1.57916,-1.64042 -0.46939,-0.90546 -0.71618,-1.14623 -1.23606,-1.20595 l -0.64958,-0.0746 0.14982,1.32428 c 0.1967,1.73856 -0.1967,6.11242 -0.77148,8.5775 -0.72333,3.10217 -2.14446,6.33105 -5.23655,11.89774 -1.51814,2.73309 -1.79513,3.79844 -2.31284,8.89555 -0.25169,2.47798 -0.46964,3.53723 -1.00097,4.86471 -0.37357,0.93335 -0.90142,2.52948 -1.17298,3.54697 -0.70301,2.63394 -0.746,2.65991 -4.54955,2.74901 -3.74695,0.0878 -3.7902,0.0543 -2.70123,-2.09115 1.08186,-2.13144 1.19741,-4.98793 0.18607,-4.59984 -0.17695,0.0679 -0.71052,1.07548 -1.1857,2.23906 -1.40529,3.44111 -1.68346,3.95597 -2.2856,4.23032 -0.3424,0.15601 -1.80078,0.26107 -3.62401,0.26107 -2.61334,0 -3.07138,-0.053 -3.19279,-0.36937 -0.078,-0.20316 -0.005,-0.58498 0.16112,-0.8485 1.72367,-2.72688 1.68916,-2.6383 1.76974,-4.54261 0.076,-1.79752 0.0508,-1.90151 -1.05762,-4.3582 -0.62453,-1.3842 -1.31698,-3.09238 -1.53876,-3.79595 -0.22178,-0.70357 -0.56041,-1.36059 -0.75251,-1.46005 -0.68264,-0.35344 -4.92178,-0.48373 -8.04231,-0.24718 -4.67901,0.35469 -15.76152,1.36494 -16.33777,1.48931 -0.37381,0.0807 -0.53181,0.32039 -0.62908,0.9544 -0.37681,2.45617 -1.07633,4.7735 -1.78996,5.92966 -0.42581,0.68988 -1.15216,2.37392 -1.6141,3.74231 -1.19463,3.53881 -1.18824,3.53442 -5.02301,3.45587 -3.7551,-0.0769 -3.82071,-0.12652 -3.05807,-2.31173 0.68038,-1.9495 0.66113,-3.52087 -0.0431,-3.52087 -0.15215,0 -0.84564,1.04365 -1.54108,2.31923 -1.88037,3.44897 -1.86758,3.44058 -5.33532,3.49811 -1.57704,0.0262 -2.99462,-0.008 -3.15018,-0.0754 z m -1.97983,-29.06237 c 3.51296,-1.78072 8.43349,-6.46862 9.9448,-9.47465 0.57736,-1.1484 1.25535,-3.3392 1.25535,-4.05647 0,-0.65318 -0.65988,-0.93474 -2.19122,-0.93496 -1.97624,-2.3e-4 -6.10192,-0.4271 -7.76446,-0.80326 -0.8089,-0.18301 -2.50827,-0.85342 -3.77637,-1.48978 -2.12498,-1.06637 -2.43891,-1.15926 -4.00643,-1.18546 -2.29449,-0.0383 -2.51516,0.18425 -2.50388,2.52573 0.008,1.55976 0.0974,1.91812 0.8475,3.37768 0.4615,0.89804 1.51163,2.72084 2.33362,4.05068 1.72784,2.79531 2.13089,3.67132 2.81276,6.11336 0.82443,2.95261 0.87059,2.98103 3.04833,1.87713 z m 85.09662,-15.25063 c 0.68924,-0.45161 0.93801,-1.00869 0.55589,-1.24485 -0.73179,-0.45227 -3.46057,0.93796 -3.07275,1.56547 0.23264,0.37642 1.74758,0.18343 2.51686,-0.32062 z"
         id="path21203" />
      <path
         style="fill:#eb5150;stroke-width:0.226266"
         d="m 200.42861,215.57671 c -0.0777,-0.20251 0.0883,-1.08108 0.36893,-1.95239 0.39351,-1.22181 0.47628,-1.85583 0.36185,-2.77171 -0.14782,-1.1831 -0.14402,-1.19249 1.01725,-2.51636 1.56344,-1.78235 2.28516,-3.06298 2.72259,-4.83101 0.30185,-1.22003 0.43987,-1.46528 0.79673,-1.41575 0.23741,0.033 1.70439,0.13478 3.25997,0.22627 l 2.82831,0.16635 -0.0805,0.90507 c -0.15325,1.72272 -0.94921,4.30432 -1.70919,5.5435 -0.41977,0.68445 -1.136,2.36448 -1.59162,3.73338 -0.47617,1.43062 -1.02643,2.65729 -1.29411,2.88489 -0.39317,0.3343 -0.93853,0.39596 -3.5023,0.39596 -2.59606,0 -3.05712,-0.0534 -3.17791,-0.3682 z m 38.1681,0.0364 c 0,-0.18247 0.40224,-0.9541 0.89386,-1.71474 1.5457,-2.39151 1.54909,-4.5709 0.0123,-7.90696 -0.54406,-1.18101 -1.21072,-2.81012 -1.48146,-3.62025 -0.69519,-2.08009 -0.74891,-2.09785 -6.30265,-2.08403 l -4.54844,0.0113 3.95965,-1.20185 c 2.1778,-0.66102 5.17449,-1.57352 6.65931,-2.0278 1.48481,-0.45427 2.83392,-0.77442 2.99802,-0.71145 0.16409,0.063 0.29835,0.3175 0.29835,0.56563 0,0.76238 0.87528,2.84134 1.7828,4.2345 0.47457,0.72853 1.84484,2.42239 3.04504,3.76413 1.20021,1.34175 2.34107,2.74678 2.53526,3.12229 0.32811,0.63449 0.32159,0.73395 -0.0922,1.40698 -0.24492,0.39832 -0.86527,1.79333 -1.37857,3.10001 -1.33144,3.38944 -1.33845,3.39399 -5.22612,3.39399 -2.62143,0 -3.15511,-0.0561 -3.15511,-0.33176 z M 167.4841,176.57848 c -0.59588,-0.8678 -1.41441,-1.83027 -1.81895,-2.13883 -0.73172,-0.55811 -3.21391,-1.35115 -3.55985,-1.13735 -0.0997,0.0616 -0.24547,0.008 -0.32387,-0.11855 -0.18878,-0.30545 0.11417,-2.29059 0.32928,-2.15765 0.092,0.0569 0.2946,-0.3214 0.45017,-0.84062 0.38014,-1.2688 2.85495,-3.72367 4.55505,-4.51836 1.33979,-0.62626 4.10201,-1.53701 4.6616,-1.53701 0.26981,0 0.24666,0.14136 -0.12044,0.73536 -1.01244,1.63823 -1.90112,3.69906 -2.33497,5.41471 -0.37549,1.48485 -0.44436,2.36247 -0.3803,4.84593 0.0496,1.92366 -0.005,3.03224 -0.14803,3.03144 -0.12444,-6.8e-4 -0.7138,-0.71128 -1.30969,-1.57907 z m 103.80798,0.96191 c -1.21369,-0.20984 -1.51916,-0.34323 -2.24469,-0.98026 -0.43025,-0.37776 -0.89473,-1.02759 -1.03218,-1.44408 -0.15928,-0.48263 -0.4779,-0.85167 -0.87859,-1.01765 -0.5674,-0.23502 -0.65145,-0.41926 -0.86229,-1.89006 -0.12848,-0.89632 -0.19198,-1.70527 -0.1411,-1.79768 0.0509,-0.0924 0.49018,0.0349 0.97623,0.28283 0.48606,0.24797 1.01896,0.45085 1.18424,0.45085 0.16527,0 0.66256,-0.43274 1.10509,-0.96163 1.10407,-1.31954 2.64631,-2.05493 4.54408,-2.16674 1.51373,-0.0892 1.52295,-0.0861 2.44291,0.81567 0.51453,0.50437 0.93712,1.14168 0.95433,1.43925 0.0611,1.05521 -0.0558,1.80284 -0.26197,1.67545 -0.11549,-0.0714 -0.27393,0.0717 -0.35209,0.31798 -0.39386,1.24094 -3.36245,2.9528 -5.12056,2.9528 -0.49509,0 -0.65281,0.10598 -0.65281,0.43866 0,0.51538 1.14324,0.74763 3.16772,0.64352 0.98225,-0.0505 1.24446,0.007 1.24446,0.27442 0,0.54643 -2.74081,1.19696 -4.07278,0.96667 z m 1.62569,-5.2798 c 0.85546,-0.32412 1.65516,-1.10114 1.65516,-1.60822 0,-0.8598 -2.72647,-0.24557 -3.60413,0.81195 -0.71485,0.86134 0.48425,1.35124 1.94897,0.79627 z"
         id="path21201" />
    </g>
    <g
       id="g19786"
       transform="matrix(-0.19621678,-0.09702458,0.09794201,-0.19807213,-81.189954,89.238112)"
       style="stroke:none;stroke-opacity:1">
      <ellipse
         style="fill:#ffffff;stroke:none;stroke-width:15.8796;stroke-miterlimit:4;stroke-dasharray:15.8796, 31.7593;stroke-dashoffset:0;stroke-opacity:1"
         id="path21744"
         cx="498.82504"
         cy="-233.57878"
         rx="74.261856"
         ry="63.370773" />
      <path
         style="fill:#f4b038;stroke:none;stroke-opacity:1"
         d="m 266.32129,-64.82965 c -5.57831,-0.58371 -6.13819,-2.40548 -5.44593,-17.72028 0.62237,-13.76851 2.55184,-22.65295 7.20437,-33.17314 1.39421,-3.15257 2.18701,-6.06877 1.76176,-6.48044 -0.42524,-0.41167 -4.14817,-2.08854 -8.27317,-3.72638 -37.23497,-14.78425 -73.92263,-38.72441 -103.99216,-67.85902 -4.67069,-4.52547 -8.78644,-7.9096 -9.14611,-7.52029 -0.35968,0.38931 -1.4287,5.43284 -2.37561,11.20784 -6.62791,40.42218 -32.31343,75.61476 -69.685031,95.47778 -21.25239,11.29565 -51.61832,16.93792 -75.2602895,13.98405 -6.98774,-0.87306 -7.44337,-1.76142 -8.25509,-16.09526 -0.63107,-11.14381 0.82013,-25.41474 3.81597,-37.52595 12.34757,-49.91725 53.2934895,-88.89663 103.3983205,-98.43234 9.61812,-1.83047 12.25579,-3.01274 8.39464,-3.76267 -15.553921,-3.02096 -20.902391,-4.41336 -29.835961,-7.76737 -39.93449,-14.99301 -70.1331595,-48.38565 -81.7336595,-90.37824 -1.95972,-7.09399 -4.32502,-26.5498 -4.32502,-35.5755 0,-6.71498 1.38355,-17.64138 2.3571,-18.61493 0.18863,-0.18864 4.33830996,-0.85872 9.2215,-1.48908 15.8351295,-2.04411 40.1038595,1.25611 57.9213995,7.87652 30.15157,11.20334 57.755421,35.9606 72.254031,64.80299 4.82987,9.60817 10.04709,26.13798 11.91482,37.75 0.95911,5.96295 2.20998,10.75 2.80901,10.75 0.59395,0 3.99192,-2.96652 7.55103,-6.59228 20.90029,-21.29162 51.75915,-43.73822 78.82602,-57.33769 18.92004,-9.50619 44.38208,-19.17848 63.47143,-24.11096 5.96857,-1.54221 11.12901,-3.08108 11.46764,-3.41971 0.33862,-0.33863 0.11125,-1.83602 -0.50528,-3.32753 -0.61654,-1.4915 -2.25604,-5.41183 -3.64336,-8.71183 -4.26448,-10.14393 -7.72526,-25.27641 -8.69056,-38 -0.89168,-11.75333 -0.34989,-28.24266 0.99973,-30.42639 0.37442,-0.60583 4.70033,-1.59894 9.61313,-2.20691 22.26331,-2.75515 51.83635,3.17467 73.22398,14.68246 12.06342,6.49082 19.79513,12.17213 30.52498,22.42993 10.74486,10.27216 18.66698,20.88101 25.87392,34.6489 2.84219,5.42961 5.60206,10.16376 6.13305,10.52033 0.53099,0.35658 3.67259,1.18093 6.98135,1.83189 9.59378,1.88746 36.20395,10.31355 48.32518,15.30214 39.40878,16.21899 73.90906,39.12363 103.41639,68.65789 16.84653,16.86189 24.39093,25.54298 23.47973,27.01734 -0.35434,0.57333 -3.34728,1.04242 -6.65098,1.04242 -7.30249,0 -9.61074,1.12271 -11.47332,5.58049 -1.23835,2.96379 -1.23835,3.87523 0,6.83902 1.95077,4.66883 4.15183,5.58049 13.47332,5.58049 4.4037,0 8.28264,0.44644 8.61987,0.99208 0.89337,1.44551 0.0477,2.63247 -11.19084,15.7075 -25.31368,29.45015 -58.00747,54.93382 -94.80427,73.89665 -32.38582,16.68967 -64.66819,26.7657 -106,33.08488 -8.20998,1.25522 -18.15663,1.70273 -39.21587,1.76438 l -28.21586,0.0826 -5.49349,6.66001 c -18.83756,22.83765 -49.17426,35.1859 -78.82181,32.08361 z m 241.78693,-123.82328 c 9.00344,-2.34384 16.11374,-6.33124 22.56148,-12.65231 15.48663,-15.18237 18.71549,-39.24834 7.83286,-58.38127 -3.11534,-5.47713 -11.19128,-13.61852 -17.08315,-17.22158 -14.33423,-8.76586 -34.22145,-8.6127 -49.56932,0.38175 -6.20167,3.63442 -14.31504,12.24407 -17.4802,18.54941 -9.97449,19.87032 -6.67969,41.18263 8.75242,56.61475 12.14337,12.14337 28.93584,16.88751 44.98591,12.70925 z m -17.24135,-36.40795 c -3.46308,-2.11156 -6.29855,-6.65372 -6.29855,-10.08969 0,-3.59625 3.10701,-8.95477 6.08519,-10.49484 1.54852,-0.80077 4.68284,-1.45595 6.96515,-1.45595 3.38589,0 4.77545,0.62579 7.54966,3.4 2.77421,2.77421 3.4,4.16377 3.4,7.54966 0,5.60557 -2.41824,9.90932 -6.5343,11.62912 -4.5891,1.91745 -7.35854,1.78395 -11.16715,-0.5383 z"
         id="path19790" />
      <path
         style="fill:#ed4c26;stroke:none;stroke-opacity:1"
         d="m 353.37947,-105.0976 c -0.87036,-0.38925 -0.2534,-2.47958 2.1318,-7.22283 4.8178,-9.58078 8.30378,-21.43332 9.33333,-31.73392 1.18769,-11.88277 0.55866,-21.94821 -1.47722,-23.63754 -1.13708,-0.94352 -5.32649,-1.27352 -15.16705,-1.1947 -11.6283,0.0931 -14.86914,0.49245 -22.39262,2.75912 -20.90888,6.2994 -39.54212,19.85828 -50.35578,36.64247 -2.1162,3.28461 -4.56071,5.97595 -5.43225,5.98076 -0.87155,0.005 -5.82155,-1.74134 -11,-3.88033 -40.49956,-16.7286 -72.69315,-38.62986 -108.47374,-73.79455 -13.0262,-12.80199 -28.44757,-31.07358 -28.43719,-33.69304 0.01,-2.49045 17.86956,-23.50698 29.79642,-35.06317 22.06612,-21.38035 40.14519,-35.76038 61.74411,-49.11108 24.59048,-15.19983 59.15023,-29.9189 85.45502,-36.39545 4.675,-1.15104 10.075,-2.73898 12,-3.52875 1.925,-0.78977 7.1,-2.11822 11.5,-2.95211 27.83064,-5.27446 65.73819,-6.33771 94.87872,-2.66119 9.2833,1.17122 17.2708,2.37181 17.75,2.66798 1.57761,0.97501 0.91875,3.23229 -2.79099,9.562 -2.01425,3.4368 -6.01905,11.2234 -8.89955,17.30358 -33.0894,69.84521 -29.28012,152.83269 10.09975,220.02936 1.54715,2.64002 2.34681,5.01648 1.84588,5.48564 -0.4861,0.45527 -6.05881,1.62279 -12.38381,2.59448 -8.43441,1.29576 -19.09733,1.84993 -40,2.07888 -15.675,0.17169 -29.05117,0.0657 -29.72483,-0.23561 z m 137.4874,-119.96328 c -5.32149,-2.88741 -7.23912,-10.12642 -4.09325,-15.45195 4.60599,-7.79734 16.38221,-6.89026 19.90164,1.53294 4.10994,9.83647 -6.35338,19.04924 -15.80839,13.91901 z"
         id="path19788" />
    </g>
    <g
       id="g25234"
       transform="matrix(0.66793097,0,0,0.66793097,-152.08316,-26.685059)">
      <path
         style="fill:#e6d1a1"
         d="m 123.66451,212.77353 c -4.31954,-1.74038 -4.45111,-3.73658 -1.35963,-20.62844 1.59691,-8.72552 3.21827,-18.67708 3.60303,-22.11458 0.64833,-5.79232 0.55499,-6.25 -1.27462,-6.25 -2.53845,0 -4.72136,2.53453 -6.22972,7.23317 -2.03714,6.34581 -8.6295,9.57364 -15.4061,7.54332 -11.927637,-3.57361 -21.589306,-23.9706 -18.814969,-39.72077 1.573017,-8.93016 4.636314,-14.64156 11.606705,-21.64026 6.812374,-6.84004 14.564634,-11.00862 27.073274,-14.55794 10.29252,-2.920502 31.12013,-3.168638 41.95902,-0.49989 17.20266,4.23562 32.86888,15.86291 37.2681,27.65995 5.76109,15.44906 2.45143,32.63263 -8.36938,43.45345 -8.67149,8.67148 -20.27937,7.56257 -23.42551,-2.23786 -1.50836,-4.69864 -3.69128,-7.23317 -6.22973,-7.23317 -1.82939,0 -1.92302,0.45838 -1.2767,6.25 0.38361,3.4375 1.81272,12.31239 3.17581,19.72197 3.01413,16.38438 2.88997,20.97532 -0.61495,22.7399 -2.93037,1.47531 -38.13151,1.71274 -41.68463,0.28115 z"
         id="path25240" />
      <path
         style="fill:#cfb989"
         d="m 122.28227,210.19994 c -1.06169,-1.27925 -1.08342,-2.85202 -0.114,-8.25 1.73764,-9.6757 4.93414,-28.97848 5.62115,-33.94473 0.75175,-5.43408 -1.20364,-6.48092 -6.4576,-3.45712 -3.34479,1.92501 -3.81362,1.97291 -5.25018,0.53635 -2.11617,-2.11616 -4.6494,-0.98435 -6.03947,2.69835 -1.60143,4.24267 -4.04255,3.76749 -6.29116,-1.2246 -5.283352,-11.7295 2.37928,-29.15815 15.62421,-35.53722 15.04835,-7.24765 37.38001,-7.00338 51.33272,0.56149 9.27856,5.03064 15.83566,16.10992 15.89731,26.86106 0.0521,9.08892 -5.82107,15.89231 -8.09306,9.37486 -1.30702,-3.74931 -3.65487,-4.80774 -5.98569,-2.69838 -1.59982,1.44782 -1.99968,1.41624 -4.71275,-0.37213 -3.21012,-2.11601 -6.00127,-2.52608 -6.93297,-1.01857 -0.6666,1.07859 0.29759,7.99392 4.14513,29.7297 2.23017,12.5988 2.46515,15.44558 1.38258,16.75 -1.95785,2.35906 -42.16771,2.3508 -44.12622,-0.009 z"
         id="path25238" />
      <path
         style="fill:#683c0f"
         d="m 104.79811,164.31263 c -1.73217,-4.14567 -1.78279,-5.77113 -0.34354,-11.03212 2.03891,-7.453 12.76146,-15.5 20.6536,-15.5 2.95311,0 3.38794,2.19555 2.62595,13.25908 -0.53894,7.82513 -1.02093,10.02146 -2.28404,10.40794 -0.88052,0.26942 -2.72953,1.09066 -4.10891,1.82498 -2.11046,1.12351 -2.81437,1.11108 -4.44113,-0.0784 -3.0215,-2.20937 -5.49361,-1.67772 -7.34741,1.58012 -2.19274,3.85347 -2.98367,3.77669 -4.75452,-0.46156 z m 74.34754,0.46156 c -1.83898,-3.23178 -4.32417,-3.79077 -7.27157,-1.63557 -1.53947,1.12568 -2.29951,1.13443 -4.44113,0.0511 -1.4211,-0.71885 -3.30424,-1.51514 -4.18476,-1.76953 -1.26602,-0.36577 -1.74385,-2.5374 -2.28404,-10.38062 -0.3757,-5.45494 -0.39463,-10.6698 -0.0421,-11.58858 1.44731,-3.77163 11.26494,-0.80537 17.57697,5.31063 6.58252,6.3781 8.33656,14.32139 4.69658,21.26887 -1.27983,2.44277 -2.0877,2.19217 -4.04999,-1.25632 z"
         id="path25236" />
    </g>
  </g>
</svg>
