<?xml version="1.0" encoding="UTF-8" standalone="no"?>
<!-- Created with Inkscape (http://www.inkscape.org/) -->

<svg
   version="1.1"
   id="svg15881"
   width="521.15137"
   height="563.27179"
   viewBox="0 0 521.15137 563.27179"
   sodipodi:docname="condiment.svg"
   inkscape:version="1.1.1 (eb90963e84, 2021-10-02)"
   xmlns:inkscape="http://www.inkscape.org/namespaces/inkscape"
   xmlns:sodipodi="http://sodipodi.sourceforge.net/DTD/sodipodi-0.dtd"
   xmlns="http://www.w3.org/2000/svg"
   xmlns:svg="http://www.w3.org/2000/svg">
  <defs
     id="defs15885" />
  <sodipodi:namedview
     id="namedview15883"
     pagecolor="#ffffff"
     bordercolor="#ffffff"
     borderopacity="1"
     inkscape:pageshadow="0"
     inkscape:pageopacity="0"
     inkscape:pagecheckerboard="true"
     showgrid="false"
     inkscape:zoom="0.9532684"
     inkscape:cx="116.96601"
     inkscape:cy="281.13803"
     inkscape:window-width="1920"
     inkscape:window-height="1136"
     inkscape:window-x="0"
     inkscape:window-y="0"
     inkscape:window-maximized="1"
     inkscape:current-layer="g15887"
     fit-margin-top="0"
     fit-margin-left="0"
     fit-margin-right="0"
     fit-margin-bottom="0" />
  <g
     inkscape:groupmode="layer"
     inkscape:label="Image"
     id="g15887"
     transform="translate(170.1502,128.11886)">
    <g
       id="g17645"
       transform="translate(-558.3914,30.860111)">
      <path
         style="fill:#f5c754"
         d="m 412.51987,351.28155 c -2.86746,-0.98562 -6.01746,-2.39829 -7,-3.13926 -4.94327,-3.72791 -10.67307,-9.88633 -12.52148,-13.45815 -4.76266,-9.20325 -4.7405,-8.73437 -4.75309,-100.5685 -0.0132,-96.14973 -0.27142,-92.18056 6.67868,-102.65219 7.17564,-10.81145 16.67921,-15.18456 34.80945,-16.01775 7.04423,-0.32373 12.30341,-1.00784 12.73469,-1.65652 0.97184,-1.46175 0.94726,-13.7706 -0.0306,-15.30903 -0.46301,-0.72845 -3.91294,-1.3209 -8.73469,-1.5 l -7.9694,-0.29601 -0.27307,-17.75 -0.27308,-17.75 16.77308,-0.0153 c 9.22519,-0.008 17.38042,-0.4002 18.12273,-0.87061 0.93912,-0.59513 2.69963,-11.60633 5.78762,-36.19892 2.78353,-22.1679 4.88992,-35.63084 5.65034,-36.11408 2.04564,-1.29998 15.35799,-0.9372 16.47302,0.44892 0.55304,0.6875 2.88668,16.775 5.18587,35.75 3.29974,27.23255 4.52321,34.76331 5.80804,35.75 1.15375,0.88602 6.52888,1.25 18.45965,1.25 h 16.83195 l -0.27308,17.75 -0.27307,17.75 -8.5,0.5 -8.5,0.5 v 8.5 8.5 l 12.58001,0.70043 c 16.71027,0.9304 22.26865,2.9732 30.5075,11.21206 4.29091,4.29091 6.79951,7.85829 8.5,12.08751 l 2.41249,6 0.29263,84.97852 c 0.17761,51.57623 -0.089,87.42999 -0.67834,91.21528 -2.14326,13.76661 -9.25807,23.66992 -20.93914,29.14579 l -5.67515,2.6604 -63,0.19473 c -58.26074,0.18008 -63.3922,0.0599 -68.21356,-1.59732 z m 120.47019,-34.92584 c 0.99382,-0.63095 1.20295,-15.94683 1,-73.23468 l -0.25663,-72.43689 -53.93556,-0.25878 c -42.48584,-0.20384 -54.1052,0.008 -54.73469,1 -0.43952,0.69233 -0.80602,33.29892 -0.81444,72.45909 -0.0144,66.76422 0.0937,71.26382 1.73469,72.21959 2.10231,1.22448 105.0928,1.46671 107.00663,0.25167 z m 129.32232,-368.7549 c 0.048,-1.16495 0.28494,-1.4019 0.60416,-0.60417 0.28887,0.72187 0.25335,1.58437 -0.0789,1.91667 -0.33229,0.33229 -0.56864,-0.25834 -0.52522,-1.3125 z"
         id="path17651" />
      <path
         style="fill:#adadad"
         d="m 764.23343,351.73168 c 0,-0.17206 2.41177,-1.49281 5.35948,-2.93499 7.18181,-3.51373 14.71771,-11.6459 17.73459,-19.13781 l 2.40593,-5.97474 0.29819,-84.5 c 0.17652,-50.02137 -0.11119,-90.03896 -0.70512,-98.07486 -1.75141,-23.69692 -6.10451,-39.56102 -16.169,-58.92514 C 756.03172,49.2341 750.32897,35.3577 744.3378,12.05773 c -7.28076,-28.31522 -9.10437,-47.31517 -9.10437,-94.8571 0,-32.05184 -0.22312,-37.95677 -1.47341,-38.99442 -1.13692,-0.94356 -9.35838,-1.05471 -36,-0.48667 l -34.52659,0.73614 v 30.402881 c 0,36.944759 -1.33706,60.115739 -4.5774,79.325579 -5.45965,32.36659 -14.6308,58.75449 -29.83541,85.84465 -10.85538,19.34112 -17.4169,38.79484 -19.61512,58.15535 -0.71799,6.32359 -0.97724,40.26837 -0.77536,101.52188 l 0.30329,92.02188 3.28675,6.67548 c 3.55729,7.22497 9.488,13.22275 16.51364,16.7004 2.88101,1.42608 3.54678,2.07903 2.1204,2.07957 -2.98753,10e-4 -12.27469,-6.78552 -16.03857,-11.7203 -1.76789,-2.31786 -4.2619,-6.81633 -5.54225,-9.9966 l -2.3279,-5.78231 -0.32137,-82.5 c -0.3281,-84.22838 0.31496,-107.40557 3.38495,-122 2.64931,-12.59452 7.40206,-25.51422 14.09097,-38.30438 16.81274,-32.14836 22.78677,-46.61141 28.33,-68.58655 7.53821,-29.88387 9.00338,-45.28577 9.00338,-94.643596 0,-34.414504 0.19614,-39.518754 1.57143,-40.894044 -0.28026,-36.2874 8.92231,-34.1548 35.42857,-35.73454 l 12.34002,0.33155 c 11.68918,0.31407 12.55758,0.48249 16.46484,3.19319 2.41199,1.67335 5.00695,4.68389 6.24918,7.25001 2.04808,4.23076 2.15653,6.33691 3.0193,58.638372 0.4922,29.837493 1.11023,55.599988 1.37339,57.249988 0.26315,1.65 0.97492,6.825 1.58169,11.5 1.4393,11.08925 4.52042,26.25282 7.61973,37.5 5.56954,20.2115 11.29524,33.74898 27.28035,64.5 6.91339,13.29947 12.09896,28.26533 14.72599,42.5 1.71132,9.2729 1.84551,16.94381 1.84551,105.5 v 95.5 l -2.30375,5.70163 c -2.51982,6.23638 -9.32997,14.48183 -14.70429,17.80334 -3.10838,1.92108 -9.49196,4.30355 -9.49196,3.54257 z m -366.07569,-9.29754 -2.42431,-2.75 2.75,2.42431 c 1.5125,1.33338 2.75,2.57088 2.75,2.75 0,0.78428 -0.8098,0.14598 -3.07569,-2.42431 z M 643.729,314.94267 c -0.30076,-1.24219 -0.42279,-34.20853 -0.2712,-73.25853 l 0.27563,-71 h 55 55 v 73 73 l -54.72881,0.25853 -54.7288,0.25853 z m 108.26115,0.41299 c 0.99373,-0.63089 1.20299,-15.74692 1,-72.23469 l -0.25672,-71.43683 -53.75,-0.25869 -53.75,-0.25868 v 71.84202 c 0,39.51311 0.3,72.14202 0.66667,72.50868 0.95497,0.95497 104.57993,0.79692 106.09005,-0.16181 z M 442.56964,106.18414 c 0,-4.125 0.17651,-5.8125 0.39226,-3.75 0.21574,2.0625 0.21574,5.4375 0,7.5 -0.21575,2.0625 -0.39226,0.375 -0.39226,-3.75 z"
         id="path17649"
         sodipodi:nodetypes="ssscssssssscssssscsscsscsssssccsssssssssscsssscssssscccccccssscccsssssss" />
      <path
         style="fill:#c83e35"
         d="m 633.56228,351.26553 c -9.47874,-3.44021 -17.20321,-9.96799 -21.25828,-17.96492 -4.14838,-8.18095 -4.23171,-10.54912 -3.83962,-109.11647 0.36626,-92.0751 0.43045,-94.73824 2.50149,-103.78444 3.34302,-14.60214 7.77824,-26.76653 14.29827,-39.21556 16.09665,-30.73418 21.80706,-44.21923 27.31331,-64.5 8.32387,-30.65865 10.6303,-53.53954 10.64609,-105.614229 l 0.01,-32.614231 34.52659,-0.73614 c 25.50866,-0.54388 34.88859,-0.43572 35.91257,0.41411 1.13111,0.93874 1.46662,9.37039 1.82449,45.850376 0.48838,49.784524 1.20283,57.188834 8.29873,86.005054 5.37569,21.83046 10.68448,35.55252 23.48173,60.69506 16.28321,31.99136 20.22403,44.53843 21.9858,70 1.19714,17.30145 1.16858,169.99641 -0.0335,179.25124 -0.51803,3.98819 -1.90021,9.47899 -3.07153,12.2018 -2.56638,5.96569 -10.54932,13.80958 -18.04757,17.73319 l -5.37731,2.81377 -62,0.2291 c -58.46779,0.21606 -62.29461,0.12219 -67.17115,-1.64771 z m 120.42764,-107.83986 0.25649,-73.25847 -55.25649,0.25847 -55.25649,0.25847 -0.27563,71 c -0.15159,39.05 -0.0296,72.01634 0.2712,73.25853 l 0.54682,2.25853 54.7288,-0.25853 54.72881,-0.25853 z"
         id="path17647" />
    </g>
    <g
       id="g18697"
       transform="matrix(1.8338457,0,0,1.7138253,-212.52673,-354.50335)">
      <path
         style="fill:#e3e98c"
         d="m 120.67231,459.31073 c -12.87448,-3.46214 -24.613392,-13.05986 -32.478903,-26.5547 -2.680851,-4.59953 -7.400053,-12.41278 -10.487116,-17.36278 -7.8042,-12.51377 -9.487341,-17.91202 -8.624395,-27.6606 0.376265,-4.25061 1.22782,-8.47194 1.892345,-9.38073 7.043562,-9.63264 59.737429,-7.73019 82.279229,2.9706 17.12107,8.12753 24.21789,21.25321 21.52602,39.81279 -2.81486,19.40764 -15.20962,33.39672 -33.90511,38.26627 -7.04519,1.83504 -13.14233,1.80762 -20.20207,-0.0909 z"
         id="path18707" />
      <path
         style="fill:#afc45c"
         d="m 118.23412,457.81955 c -14.21075,-4.88841 -23.272609,-13.70203 -33.941814,-33.01201 -2.001315,-3.62214 -5.198363,-8.90328 -7.104551,-11.73586 -1.906188,-2.83258 -4.445303,-7.74401 -5.642477,-10.91429 -1.878538,-4.97462 -2.084823,-6.92609 -1.506051,-14.24733 0.368845,-4.66576 1.089562,-8.98798 1.601592,-9.60494 0.512031,-0.61696 4.402476,-2.15232 8.645434,-3.41191 7.149968,-2.12259 8.924297,-2.24592 24.247947,-1.68537 47.99503,1.75568 70.03348,14.60038 70.03348,40.81769 0,20.90873 -12.04858,38.04822 -30.85534,43.8927 -8.21485,2.55289 -17.87883,2.51546 -25.47822,-0.0987 z m 31.11771,-18.27731 c 6.68215,-3.43619 12.18854,-8.9185 15.29294,-15.22608 3.34794,-6.80239 3.398,-17.9904 0.10836,-24.21417 -4.30136,-8.13786 -9.25459,-11.80983 -21.03887,-15.59674 -14.20825,-4.56586 -26.75085,-6.53085 -43.64658,-6.83789 -11.841664,-0.2152 -14.563902,0.0247 -17.657742,1.5559 -7.458287,3.69131 -7.237418,11.55723 0.64959,23.13422 2.261581,3.31967 5.599142,8.6495 7.416804,11.84407 3.978386,6.99206 12.747868,16.67128 19.004398,20.97589 8.31297,5.71947 15.39571,7.76905 25.58695,7.40425 7.4318,-0.26603 9.92073,-0.79563 14.28415,-3.03945 z m -25.6114,-10.51484 c -6.71396,-2.36827 -12.1385,-7.56475 -17.63931,-16.89772 -8.682892,-14.73186 -8.215876,-19.81934 2.0945,-22.81665 8.22066,-2.38981 25.08291,-1.63547 31.8596,1.42526 6.28529,2.83879 9.28367,5.58757 11.62242,10.65496 7.56723,16.39598 -10.14058,33.9117 -27.93721,27.63415 z m -3.17275,-32.66553 c 0,-0.84227 -0.70525,-1.80202 -1.56722,-2.13279 -1.88073,-0.7217 -3.93166,1.04795 -2.98663,2.57704 1.01871,1.6483 4.55385,1.30343 4.55385,-0.44425 z"
         id="path18705" />
      <path
         style="fill:#679435"
         d="M 117.71502,456.95171 C 105.2089,452.32156 95.286873,443.00498 87.176004,428.2762 c -2.690421,-4.88562 -6.179957,-10.75935 -7.754523,-13.05273 -1.574566,-2.29337 -4.216466,-7.01837 -5.870889,-10.5 -2.735027,-5.75568 -2.987319,-7.14396 -2.779731,-15.29597 0.242766,-9.53345 1.610991,-12.53425 5.715032,-12.53425 1.055016,0 2.732481,-0.31246 3.727698,-0.69436 0.995217,-0.3819 0.138441,0.97667 -1.903946,3.01906 -7.162862,7.16286 -6.190787,11.80636 6.680438,31.91175 10.14658,15.84938 18.533777,25.4544 25.872457,29.62914 17.05387,9.7014 36.74114,7.59933 50.6467,-5.4077 14.51018,-13.57257 11.26297,-38.8004 -6.29046,-48.87104 -5.27941,-3.02888 -14.68664,-6.1341 -26.1511,-8.63219 -8.04546,-1.7531 -8.36364,-1.901 -3,-1.39454 30.89103,2.91689 47.5,16.12269 47.5,37.76729 0,18.88614 -8.82405,33.36847 -25,41.03086 -5.58938,2.64764 -7.83091,3.12122 -16,3.38045 -7.54392,0.23938 -10.60213,-0.10659 -14.85266,-1.68026 z m 6.09154,-29.39333 c -4.95188,-1.7959 -9.76988,-6.08424 -14.25333,-12.6864 -8.35907,-12.30928 -10.011015,-20.26038 -4.73241,-22.77785 7.00151,-3.33915 23.49136,-3.85575 32.91861,-1.03128 7.7937,2.33505 14.78433,11.00241 14.78433,18.3304 0,12.79885 -15.85692,22.82918 -28.7172,18.16513 z m -2.40139,-28.54353 c 0.73562,-0.46628 1.18562,-1.92189 1,-3.23469 -0.29152,-2.06181 -0.88229,-2.38691 -4.33749,-2.38691 -3.39007,0 -4.04885,0.34403 -4.32036,2.2562 -0.43671,3.07559 4.61356,5.29504 7.65785,3.3654 z M 84.38018,375.21014 c 0.721875,-0.28888 1.584375,-0.25335 1.916667,0.0789 0.332291,0.33229 -0.258334,0.56864 -1.3125,0.52522 -1.164943,-0.048 -1.4019,-0.28494 -0.604167,-0.60417 z m 27.9375,-0.0226 c 1.2375,-0.23836 3.2625,-0.23836 4.5,0 1.2375,0.23835 0.225,0.43337 -2.25,0.43337 -2.475,0 -3.4875,-0.19502 -2.25,-0.43337 z m -19.966478,-1.03267 c 2.905937,-0.20265 7.405937,-0.20052 9.999998,0.005 2.59407,0.20527 0.21648,0.37107 -5.28352,0.36847 -5.5,-0.003 -7.622415,-0.17053 -4.716478,-0.37317 z"
         id="path18703" />
      <path
         style="fill:#9f5827"
         d="m 118.06768,455.85073 c -7.31105,-2.35194 -18.093226,-10.26229 -22.821111,-16.7427 -3.263732,-4.47353 -12.949186,-22.82841 -10.930723,-20.71478 0.525237,0.55 4.382093,5.57141 8.570791,11.15868 4.188698,5.58728 9.092993,11.1906 10.898433,12.45182 1.80543,1.26123 3.61322,2.76482 4.0173,3.34132 0.40408,0.5765 0.74157,0.69315 0.75,0.25923 0.008,-0.43393 1.00288,0.1311 2.20991,1.25562 1.38981,1.29481 2.90258,1.81987 4.12523,1.43182 1.16698,-0.37038 1.68559,-0.21628 1.31114,0.38959 -0.87185,1.41068 2.02555,2.31925 5.19849,1.63015 1.82519,-0.3964 2.2481,-0.28176 1.33601,0.36215 -1.92013,1.35556 1.83348,2.19231 9.83453,2.19231 7.34675,0 11.23809,-0.77843 10.42974,-2.08638 -0.30128,-0.48747 0.34148,-0.88631 1.42834,-0.88631 5.97424,0 17.64258,-8.21992 22.24937,-15.67386 2.89662,-4.68682 3.52988,-3.49573 0.89127,1.67637 -2.82452,5.53651 -9.0356,12.17863 -14.82527,15.85411 -9.76004,6.196 -23.21427,7.78725 -34.67345,4.10086 z m 11.27643,-4.69098 c 2.35204,-0.21124 5.95204,-0.20827 8,0.007 2.04796,0.21488 0.12357,0.38772 -4.27643,0.38409 -4.4,-0.004 -6.0756,-0.17944 -3.72357,-0.39069 z m -5.02846,-23.63606 c -5.66858,-2.10932 -10.30075,-6.08162 -14.77495,-12.67017 -8.34629,-12.29045 -9.995562,-20.24331 -4.71988,-22.75939 6.96877,-3.32354 24.45531,-3.86723 32.95686,-1.0247 4.5122,1.50868 9.57979,5.4315 11.8714,9.18965 2.7262,4.47087 2.55768,12.94775 -0.35982,18.09879 -4.48365,7.91619 -16.48985,12.32271 -24.97361,9.16582 z m -2.91048,-28.50884 c 0.73562,-0.46628 1.18562,-1.92189 1,-3.23469 -0.29152,-2.06181 -0.88229,-2.38691 -4.33749,-2.38691 -3.39007,0 -4.04885,0.34403 -4.32036,2.2562 -0.43671,3.07559 4.61356,5.29504 7.65785,3.3654 z M 71.56768,382.0157 c 0,-2.05973 2.668151,-4.78763 3.686607,-3.76918 0.867143,0.86715 -1.388747,5.64673 -2.665168,5.64673 -0.561792,0 -1.021439,-0.8449 -1.021439,-1.87755 z"
         id="path18701" />
      <path
         style="fill:#595a1c"
         d="m 118.06768,455.85073 c -7.31105,-2.35194 -18.093226,-10.26229 -22.821111,-16.7427 -3.263732,-4.47353 -12.949186,-22.82841 -10.930723,-20.71478 0.525237,0.55 4.382093,5.57141 8.570791,11.15868 4.188698,5.58728 9.092993,11.1906 10.898433,12.45182 1.80543,1.26123 3.61322,2.76482 4.0173,3.34132 0.40408,0.5765 0.74157,0.69315 0.75,0.25923 0.008,-0.43393 1.00288,0.1311 2.20991,1.25562 1.38981,1.29481 2.90258,1.81987 4.12523,1.43182 1.16698,-0.37038 1.68559,-0.21628 1.31114,0.38959 -0.87185,1.41068 2.02555,2.31925 5.19849,1.63015 1.82519,-0.3964 2.2481,-0.28176 1.33601,0.36215 -1.92013,1.35556 1.83348,2.19231 9.83453,2.19231 7.34675,0 11.23809,-0.77843 10.42974,-2.08638 -0.30128,-0.48747 0.34148,-0.88631 1.42834,-0.88631 5.97424,0 17.64258,-8.21992 22.24937,-15.67386 2.89662,-4.68682 3.52988,-3.49573 0.89127,1.67637 -2.82452,5.53651 -9.0356,12.17863 -14.82527,15.85411 -9.76004,6.196 -23.21427,7.78725 -34.67345,4.10086 z m 11.27643,-4.69098 c 2.35204,-0.21124 5.95204,-0.20827 8,0.007 2.04796,0.21488 0.12357,0.38772 -4.27643,0.38409 -4.4,-0.004 -6.0756,-0.17944 -3.72357,-0.39069 z m -5.53755,-24.54071 c -5.38008,-2.05127 -9.54489,-6.11809 -13.1622,-12.85252 l -3.42332,-6.37327 5.04715,4.67206 c 8.0176,7.42174 15.87984,8.60702 23.41394,3.5298 4.92047,-3.31591 7.88555,-8.2604 7.88555,-13.14974 0,-2.28367 -0.5325,-4.68462 -1.18333,-5.33545 -2.13345,-2.13344 0.15368,-2.62931 2.84825,-0.61752 12.763,9.52896 4.73558,29.80401 -12.26033,30.96624 -3.32402,0.22731 -7.32984,-0.13963 -9.16571,-0.8396 z M 71.56768,382.0157 c 0,-2.05973 2.668151,-4.78763 3.686607,-3.76918 0.867143,0.86715 -1.388747,5.64673 -2.665168,5.64673 -0.561792,0 -1.021439,-0.8449 -1.021439,-1.87755 z"
         id="path18699" />
    </g>
    <g
       id="g19010"
       transform="rotate(47.357071,376.12458,-369.17952)">
      <g
         id="g19446"
         transform="matrix(0.36084516,0,0,0.36084516,304.12785,163.07435)">
        <path
           style="fill:#bd4391"
           d="m 1434.5771,381.24134 c -3.0049,-0.82851 -9.5299,-3.80995 -14.5,-6.62543 -12.3782,-7.01204 -15.8492,-8.79541 -32.5366,-16.71711 -58.1128,-27.58685 -96.6177,-65.00788 -110.9699,-107.84626 -8.8465,-26.40508 -7.7651,-58.00064 2.9969,-87.56363 16.1305,-44.31025 56.7096,-89.10407 100.473,-110.90873 4.95,-2.46629 12.375,-5.48889 16.5,-6.7169 11.0092,-3.27742 20.6947,-8.74554 21.9699,-12.40344 1.4227,-4.0813 1.2883,-6.65662 -0.3475,-6.65662 -0.7576,0 -1.9315,-0.6675 -2.6086,-1.48333 -0.9943,-1.19812 -0.8256,-2.17051 0.8776,-5.05716 2.6106,-4.42473 2.6424,-5.45951 0.1676,-5.45951 -2.8753,0 -3.5022,-1.85279 -1.4093,-4.16539 3.147,-3.47738 6.9912,-4.83461 13.6937,-4.83461 4.9523,0 6.583,-0.36589 7.0496,-1.58179 0.9972,-2.5987 0.6876,-13.88871 -0.4722,-17.21557 -1.1264,-3.23111 -9.1011,-9.20264 -12.2897,-9.20264 -2.4913,0 -3.0318,-2.49718 -1.6267,-7.51561 1.5741,-5.62221 3.2117,-7.12545 5.3897,-4.94748 0.8832,0.88327 1.6059,2.50339 1.6059,3.60026 0,4.30386 1.8099,5.86368 6.7852,5.84752 2.5931,-0.008 5.3009,-0.38706 6.0172,-0.84142 2.4788,-1.57223 4.4533,-24.83956 3.8309,-45.14327 -1.0142,-33.08752 -6.8693,-61.48901 -19.7909,-96 -9.5205,-25.42743 -28.5727,-58.8062 -43.8445,-76.81419 -8.8011,-10.378 -6.6634,-10.77183 5.6458,-1.04008 20.2367,15.99935 39.3363,45.46463 54.679,84.35427 5.5906,14.17056 12.9264,37.55447 16.241,51.77075 1.0168,4.36116 2.2779,7.61715 2.874,7.42067 0.5843,-0.19255 2.9224,-5.5761 5.1958,-11.96346 5.7945,-16.28007 14.2215,-33.33996 22.835,-46.22796 7.2146,-10.7948 15.5315,-20.2042 15.5315,-17.57162 0,0.73385 -2.266,5.29399 -5.0355,10.13364 -16.9019,29.53554 -26.3254,56.32973 -30.9908,88.11722 -1.5821,10.7793 -1.7113,14.2729 -0.816,22.06397 0.5851,5.09124 1.3737,9.59405 1.7525,10.00627 0.9582,1.04265 22.0992,-13.4379 29.1525,-19.96805 5.7679,-5.34001 7.5517,-8.57187 9.9293,-17.98921 1.1757,-4.65655 2.7703,-6.27678 4.1045,-4.17034 2.0782,3.2811 0.2006,16.32501 -3.3651,23.37812 -1.1123,2.2 -6.3443,8.50963 -11.6268,14.02141 -5.2825,5.51178 -10.3754,11.36178 -11.3175,13 -0.9421,1.63822 -2.6983,4.19033 -3.9025,5.67135 -2.1,2.58255 -2.1198,2.79933 -0.4834,5.29677 0.9384,1.43221 4.151,4.16791 7.139,6.07933 3.2568,2.08333 5.6144,4.36767 5.8862,5.70323 0.2493,1.22535 0.6813,9.20291 0.9599,17.72791 0.7092,21.69914 2.7955,28.62787 12.6466,42 3.131,4.25006 6.7498,7.71151 10.4545,10 36.3891,22.47855 63.9613,46.0761 82.1309,70.29126 34.1766,45.54836 36.4223,94.94673 6.6013,145.20874 -16.129,27.18473 -47.0344,58.32135 -78.8948,79.48502 -18.1085,12.02882 -28.776,17.03503 -48.8248,22.91331 -9.35,2.7414 -20.2547,6.33201 -24.2326,7.97914 -9.2573,3.8331 -14.3765,4.45053 -21.2308,2.56065 z"
           id="path19016" />
        <path
           style="fill:#9b2a6e"
           d="m 1436.1886,380.71878 c -4.6695,-1.12334 -20.8217,-9.3493 -24.5991,-12.52783 -1.499,-1.26126 -8.7607,-5.0368 -16.1372,-8.39008 -41.2093,-18.73339 -75.8833,-44.21578 -96.1931,-70.69382 -10.7209,-13.97694 -19.3395,-31.70271 -23.8288,-49.00853 -1.9622,-7.5639 -2.2892,-11.38541 -2.3358,-27.2953 -0.035,-12.02007 0.4343,-20.95186 1.3403,-25.5 6.6195,-33.2301 24.5425,-65.571 51.9554,-93.75 6.9887,-5.548817 12.8156,-12.541092 19.5468,-17.22323 10.4044,-8.567084 21.5599,-16.376127 33.5612,-22.50535 5.2482,-2.63354 12.9172,-5.79223 17.0422,-7.01931 14.2152,-4.22867 24,-10.44881 24,-15.25666 0,-1.29 0.5008,-2.84624 1.1129,-3.45832 1.4757,-1.47575 0.2616,-3.28713 -2.2033,-3.28713 -2.9934,0 -3.3497,-2.55184 -0.9078,-6.50285 1.7682,-2.8611 1.9582,-3.84044 0.9748,-5.02539 -0.6718,-0.80947 -1.9111,-1.47176 -2.754,-1.47176 -1.2941,0 -1.2562,-0.30538 0.2433,-1.96235 2.5438,-2.81084 8.0954,-4.36962 13.1131,-3.68188 4.8278,0.66173 6.9587,-0.66572 8.0503,-5.01491 0.8523,-3.3958 -0.1268,-13.21083 -1.647,-16.51023 -1.481,-3.2144 -9.0091,-8.83063 -11.8368,-8.83063 -2.8987,0 -3.2093,-1.06924 -1.748,-6.01824 1.6775,-5.68155 3.1726,-6.07154 3.9776,-1.03753 0.8725,5.4566 3.6463,7.19588 10.232,6.4159 l 5.0261,-0.59527 1.2748,-7.13243 c 3.0889,-17.2824 2.415,-53.72281 -1.409,-76.19317 -8.487,-49.87137 -31.8246,-102.59776 -60.3011,-136.23816 -2.9326,-3.4644 -5.1769,-6.76414 -4.9873,-7.33276 0.1895,-0.56861 3.1999,1.06817 6.6898,3.63729 31.116,22.90626 57.2622,71.3808 74.3335,137.81296 2.3479,9.13686 3.6481,10.63894 5.1343,5.93141 4.5857,-14.52566 16.7801,-41.22318 23.8658,-52.25 7.0514,-10.97342 15.7698,-21.09384 15.7645,-18.29969 -8e-4,0.43983 -2.0405,4.62469 -4.5327,9.29969 -17.4922,32.81369 -25.14,54.67513 -29.5003,84.32689 -1.7917,12.18383 -1.898,15.09519 -0.8949,24.5 0.6262,5.87021 1.3145,10.85871 1.5297,11.08555 1.5011,1.58237 26.5639,-16.12336 33.3804,-23.58174 3.5921,-3.93029 5.113,-6.58521 6.039,-10.542 2.0503,-8.76088 3.1321,-9.08208 2.6562,-0.7887 -0.6308,10.99446 -3.0334,15.51656 -14.5425,27.37096 -5.4087,5.57097 -10.5302,11.4801 -11.3813,13.1314 -0.851,1.6513 -2.4934,3.85854 -3.6497,4.90499 -4.4826,4.05669 -2.0898,8.7814 7.6476,15.10041 l 4.25,2.75801 0.01,7.11712 c 0.014,11.23668 1.8842,29.57309 3.6669,35.94253 0.9363,3.34528 3.9553,9.29878 7.0911,13.98375 3.0034,4.48709 5.8484,9.17815 6.3223,10.42459 0.4786,1.25882 1.7073,2.26624 2.764,2.26624 1.0462,0 2.4898,0.70789 3.2078,1.57309 0.7181,0.8652 2.9107,2.44491 4.8725,3.51047 18.4578,10.02548 44.557,30.14752 61.759,47.61509 47.5148,48.24851 56.6491,103.07188 26.2801,157.73146 -17.0791,30.73963 -46.4183,61.01215 -82.4546,85.07747 -16.1477,10.78362 -26.1103,15.51635 -44.0176,20.91061 -8.25,2.48517 -19.5,6.27528 -25,8.42248 -11.4364,4.46475 -16.3909,5.38864 -21.8519,4.07489 z M 1389.5405,226.6308 c 9.2519,-1.24789 23.8339,-5.36731 26.028,-7.3529 0.8962,-0.81107 2.2785,-1.47468 3.0717,-1.47468 2.7404,0 16.7549,-8.97092 22.8947,-14.65527 7.8468,-7.26475 14.8557,-17.07603 17.1356,-23.98684 16.7164,-107.827531 -163.8804,-109.5819 -135.6582,3.14211 2.0485,7.77958 9.0003,22.36018 11.0328,23.14013 0.8693,0.3336 2.4484,2.30751 3.509,4.38648 2.4343,4.77164 7.7967,9.25528 15.4966,12.95714 9.6841,4.6558 21.355,5.88521 36.4898,3.84383 z M 1519.4572,62.50056 c -0.2292,-0.16646 -1.7667,-1.13612 -3.4167,-2.1548 l -3,-1.85214 1.905,2.1548 c 1.0477,1.18514 2.5852,2.1548 3.4167,2.1548 0.8314,0 1.3241,-0.1362 1.095,-0.30266 z"
           id="path19014"
           sodipodi:nodetypes="csssscscccssssssssssssssscssssssssscssssssssssccsssssssssssccssssccsssssscsss" />
        <path
           style="fill:#479436"
           d="m 1431.5405,22.77096 c 0,-0.90381 2.4287,-7.68579 7.6878,-21.46774 5.2554,-13.77224 6.6177,-22.43668 4.1492,-26.38938 -0.8874,-1.42103 -0.8714,-3.25401 0.068,-7.73644 1.8095,-8.63682 2.5318,-40.87111 1.2311,-54.93492 -5.2474,-56.73686 -29.8109,-118.10403 -62.9378,-157.23817 -2.9326,-3.46439 -5.177,-6.76413 -4.9874,-7.33275 0.1895,-0.56861 3.2,1.06817 6.6899,3.63729 31.1425,22.92579 57.4928,71.82469 74.3616,137.99437 1.262,4.95 2.6942,9 3.1828,9 0.4887,0 1.3166,-1.35 1.84,-3 4.726,-14.90082 16.8091,-41.38851 23.9492,-52.5 7.0514,-10.97342 15.7697,-21.09384 15.7644,-18.29969 -8e-4,0.43983 -2.0405,4.62469 -4.5326,9.29969 -17.4844,32.79905 -25.1404,54.67748 -29.4944,84.28602 -1.8029,12.25989 -1.8979,15.02193 -0.8583,24.95037 l 1.1689,11.16434 -2.376,1.54964 c -1.3068,0.8523 -3.6893,2.71135 -5.2944,4.13124 -2.8859,2.55291 -2.9258,2.7363 -3.5903,16.5 -0.5781,11.97169 -1.034,14.71249 -3.2597,19.59602 -3.0713,6.73904 -9.2188,15.32407 -16.1634,22.57237 -4.9707,5.18817 -6.5983,6.22853 -6.5983,4.21774 z"
           id="path19012" />
      </g>
    </g>
  </g>
</svg>
