<?xml version="1.0" encoding="UTF-8" standalone="no"?>
<!-- Created with Inkscape (http://www.inkscape.org/) -->

<svg
   version="1.1"
   id="svg15881"
   width="859.99994"
   height="915.74603"
   viewBox="0 0 859.99994 915.74603"
   sodipodi:docname="mixin.svg"
   inkscape:version="1.1.1 (eb90963e84, 2021-10-02)"
   xmlns:inkscape="http://www.inkscape.org/namespaces/inkscape"
   xmlns:sodipodi="http://sodipodi.sourceforge.net/DTD/sodipodi-0.dtd"
   xmlns="http://www.w3.org/2000/svg"
   xmlns:svg="http://www.w3.org/2000/svg">
  <defs
     id="defs15885" />
  <sodipodi:namedview
     id="namedview15883"
     pagecolor="#ffffff"
     bordercolor="#ffffff"
     borderopacity="1"
     inkscape:pageshadow="0"
     inkscape:pageopacity="0"
     inkscape:pagecheckerboard="true"
     showgrid="false"
     inkscape:zoom="0.47663418"
     inkscape:cx="432.19728"
     inkscape:cy="440.58947"
     inkscape:window-width="1920"
     inkscape:window-height="1136"
     inkscape:window-x="0"
     inkscape:window-y="0"
     inkscape:window-maximized="1"
     inkscape:current-layer="g15887" />
  <g
     inkscape:groupmode="layer"
     inkscape:label="Image"
     id="g15887"
     transform="translate(820.47164,397.48928)">
    <path
       style="fill:#008000"
       d="m -398.95248,516.81295 c -6.94622,-2.54253 -13.24648,-10.13242 -14.9438,-18.00271 -0.36779,-1.70541 -0.21309,-6.88041 0.34378,-11.5 6.50292,-53.94645 11.05781,-144.62057 11.07316,-220.43297 l 0.008,-38.03371 -4.06973,-14.96629 c -3.28142,-12.06728 -6.93027,-27.8885 -6.93027,-30.04925 0,-0.9798 -38.44651,-19.51463 -47.5,-22.89947 -17.38975,-6.50153 -39.96706,-10.53942 -58.71059,-10.50024 -34.48037,0.0721 -75.72338,12.10089 -105.43104,30.74969 -29.50117,18.51917 -54.89528,27.70382 -58.41472,21.12768 -2.15695,-4.03029 0.77173,-12.44133 7.74475,-22.24266 1.89696,-2.66637 3.25931,-5.03766 3.02744,-5.26954 -0.23187,-0.23187 -5.32529,1.53881 -11.31871,3.93485 -15.71208,6.28135 -24.74526,9.33842 -34.39713,11.64092 -14.28952,3.40884 -18.00935,2.42054 -17.99023,-4.7797 0.0101,-3.78979 3.90707,-13.32422 6.71353,-16.42532 1.50147,-1.6591 1.08161,-1.75418 -7.81831,-1.77058 -21.6412,-0.0399 -36.9658,-3.43524 -41.17715,-9.12335 -1.67712,-2.26522 -1.7949,-3.12609 -0.8284,-6.05462 1.26699,-3.83902 7.20374,-9.91114 14.4501,-14.7796 4.07749,-2.73945 19.08879,-10.1804 27.43744,-13.60045 2.13004,-0.87258 1.78695,-1.26662 -5,-5.74232 -14.51338,-9.57075 -16.676,-17.47864 -5.67507,-20.750485 1.86328,-0.55417 14.41279,-1.65439 27.88779,-2.44494 19.15182,-1.1236 26.61207,-1.97108 34.17536,-3.88232 9.93759,-2.51122 19.54889,-6.21366 18.59821,-7.16435 -0.62107,-0.62106 -37.08502,-4.60432 -63.27357,-6.9119 -41.3292,-3.64167 -62.50386,-9.87271 -67.29431,-19.80261 -4.17675,-8.65779 7.19263,-19.11147 26.17746,-24.06909 3.19606,-0.83461 6.00308,-1.70952 6.2378,-1.94425 0.23473,-0.23473 -5.09646,-2.34445 -11.84708,-4.68827 -14.30198,-4.96565 -32.23055,-13.16506 -35.49779,-16.23447 -4.12639,-3.8765401 -3.03007,-6.8272601 5.02809,-13.5330301 1.48271,-1.23386 2.69583,-2.898 2.69583,-3.69808 0,-0.80008 -2.17508,-4.0683199 -4.83351,-7.2627499 -8.10797,-9.74271 -10.16649,-13.63867 -10.16649,-19.24111 0,-4.095 0.52707,-5.58538 2.95198,-8.3472 3.95481,-4.50428 8.84261,-5.77699 21.61826,-5.62911 7.9935,0.0925 10.90261,-0.21679 11.54299,-1.22733 0.47088,-0.74307 0.86303,-3.90639 0.87146,-7.0296 0.0176,-6.5336 1.59859,-8.82143 6.09592,-8.82143 3.75281,0 22.39396,9.62377 35.71207,18.4369 5.66097,3.74609 10.4459,6.64278 10.63317,6.43709 0.18728,-0.2057 -0.94912,-3.58256 -2.52531,-7.50415 -6.08276,-15.13398 -6.10935,-26.48594 -0.0752,-32.08825 2.25545,-2.09402 3.40364,-2.41352 7.32625,-2.03863 10.91391,1.04303 26.06428,12.40472 47.51533,35.63307 20.54726,22.24967 49.57322,52.2171199 50.08293,51.7074099 0.89099,-0.89099 -4.90574,-16.9040699 -9.27137,-25.6115299 -2.35163,-4.69045 -8.46384,-14.36545 -13.58269,-21.5 -12.62827,-17.60101 -16.89583,-25.07327 -16.89583,-29.5836 0,-2.17538 0.66838,-4.19642 1.65881,-5.01587 2.71748,-2.24834 11.96759,-1.50303 19.66122,1.58418 3.75101,1.50517 7.00303,2.55366 7.2267,2.32998 0.22367,-0.22367 -0.46882,-3.52966 -1.53887,-7.34664 -4.54078,-16.19742 -6.20003,-33.582115 -3.86934,-40.540745 2.8032,-8.36934 8.01593,-9.93369 16.00925,-4.80439 5.62064,3.60675 18.24877,16.72919 24.1452,25.090315 2.25541,3.19817 4.42641,5.81486 4.82443,5.81486 0.39803,0 1.03899,-1.4625 1.42436,-3.25 1.55901,-7.231395 8.396,-15.750005 12.64085,-15.750005 4.57033,0 10.28258,10.36631 17.1738,31.166165 2.42971,7.33361 5.20433,16.59634 6.16582,20.58384 0.9615,3.9875 2.05516,7.25 2.43035,7.25 0.3752,0 1.4936,-2.5875 2.48534,-5.75 3.40286,-10.85117 7.97929,-17.86756 12.74826,-19.54511 7.24283,-2.54777 15.16235,21.94233 18.85126,58.29511 2.42655,23.9126899 10.92798,53.18297 21.45662,73.87481 13.5619,26.65309 36.24063,52.212195 60.17755,67.820595 8.34774,5.44326 26.73012,15.30459 28.5291,15.30459 0.65307,0 0.83702,-11.65786 0.53255,-33.75 -0.43575,-31.617365 -0.62799,-34.489515 -3.04228,-45.453235 -8.46769,-38.4533 -26.4813,-70.95074 -56.64226,-102.18541 -16.53232,-17.12087 -32.29699,-29.1574 -60.46286,-46.1642 -24.65281,-14.885575 -45.52894,-32.358545 -47.07588,-39.401705 -1.4948,-6.80577 5.85152,-9.72402 21.80154,-8.66043 5.60367,0.37366 11.76348,0.95714 13.68848,1.2966 3.1302,0.552 2.17928,-0.47306 -9,-9.70171 -14.90309,-12.3027 -32.34817,-29.60598 -37.37662,-37.0728 -4.92048,-7.30649 -4.81439,-10.25885 0.46542,-12.95241 4.8887,-2.49403 15.89569,-3.61521 21.1612,-2.1555 2.0625,0.57177 3.75,0.70857 3.75,0.30401 0,-0.40457 -2.91416,-6.52172 -6.47591,-13.59366 -9.86219,-19.5816 -13.78122,-33.17038 -11.53196,-39.98571 4.40339,-13.34239 25.35554,-6.35479 57.1171,19.04871 l 6.60924,5.28619 0.61339,-7.17937 c 1.24286,-14.54693 6.05179,-23.67937 12.46901,-23.67937 4.04435,0 11.09355,7.75882 18.55734,20.42545 3.10298,5.266 8.22526,13.96205 11.38283,19.32455 3.15758,5.3625 8.33839,13.20069 11.51292,17.41819 6.88483,9.14682 24.11083,25.74063 24.53393,23.63355 0.32619,-1.6245 -17.28892,-47.13181 -30.30928,-78.30174 -11.01836,-26.37725 -16.29914,-48.41986 -14.43109,-60.23707 1.51046,-9.55509 5.26434,-13.26293 13.42762,-13.26293 7.99721,0 16.14644,4.58575 27.27486,15.34816 10.52788,10.18163 10.1151,10.49422 7.72259,-5.84816 -1.86082,-12.71057 -2.98099,-35.62404 -2.04628,-41.85715 0.81552,-5.43827 3.4273,-8.64285 7.04405,-8.64285 1.35871,0 4.98948,1.15227 8.06839,2.56059 3.07891,1.40832 6.53399,2.42082 7.67796,2.25 1.53491,-0.2292 3.5565,-3.24064 7.71484,-11.49232 3.0992,-6.14995 6.51995,-12.16034 7.60168,-13.35641 5.05272,-5.58685 14.40782,-7.50726 21.10032,-4.33146 4.69018,2.22563 8.33866,6.92942 13.33508,17.19217 4.58291,9.41341 6.56908,12.17743 8.75043,12.17743 0.775,0 3.8686,-1.125 6.87465,-2.5 11.81009,-5.40205 14.69822,-2.85406 15.23625,13.4418 0.2981,9.0287 -0.6473,21.17539 -3.46803,44.5582 l -0.60316,5 7.87062,-7.75037 c 12.36395,-12.17506 20.20338,-16.69014 29.04388,-16.72767 9.65676,-0.041 13.83425,6.23047 13.52371,20.30249 -0.30368,13.76087 -4.83334,29.66874 -16.42275,57.67555 -11.86367,28.66957 -28.82514,72.49433 -28.55247,73.77335 0.42135,1.9764 17.08784,-13.98008 23.66727,-22.65901 5.2984,-6.98912 13.11097,-18.62811 13.11097,-19.53243 0,-1.18804 15.7839,-26.80981 18.83952,-30.58191 5.21076,-6.43258 7.24352,-7.92907 10.82159,-7.96673 6.15548,-0.0648 10.75313,8.97055 12.00199,23.58642 l 0.60834,7.1197 9.61428,-7.53467 c 19.24835,-15.08485 32.31615,-22.11546 42.66769,-22.95565 5.42031,-0.43994 6.36159,-0.22576 9,2.0479 2.75501,2.37413 2.93912,2.98342 2.83176,9.37113 -0.16754,9.96739 -2.09685,15.00297 -18.13923,47.34408 -0.13973,0.2817 4.36027,0.51399 10,0.5162 8.71093,0.003 10.89364,0.34324 14.50406,2.25814 5.35237,2.83881 5.59281,5.81633 1.03299,12.79204 -4.38,6.70061 -22.75006,24.9472 -37.09185,36.84256 -6.49487,5.38697 -11.60142,10.00193 -11.34789,10.25546 0.25353,0.25354 3.06267,-0.02 6.24252,-0.6078 7.59298,-1.40364 19.70406,-1.36183 24.5321,0.0847 5.22905,1.56666 7.23766,3.95134 6.42908,7.63278 -1.82714,8.3189 -26.12775,27.87226 -56.65739,45.589075 -31.76287,18.43248 -64.62533,50.77482 -83.68034,82.3559399 -13.67041,22.6568601 -21.815,45.3302001 -25.64685,71.3970901 -1.84893,12.57771 -2.29107,67.871635 -0.54271,67.871635 1.74154,0 19.92148,-9.83552 28.40533,-15.36756 16.79498,-10.95144 33.30601,-26.888695 44.68531,-43.132435 2.31176,-3.3 4.98367,-6.9 5.93757,-8 1.72119,-1.98479 11.9255,-21.7019 15.87814,-30.68026 6.55488,-14.88932 13.16984,-41.3416201 15.08325,-60.31588 3.53102,-35.01518 11.6945,-60.32189 18.66247,-57.8535 4.92217,1.74367 9.44957,8.62754 12.89035,19.59964 0.99174,3.1625 2.11014,5.75 2.48534,5.75 0.37519,0 1.46885,-3.2625 2.43035,-7.25 0.96149,-3.9875 3.73611,-13.25023 6.16582,-20.58384 6.89122,-20.799855 12.60347,-31.166165 17.1738,-31.166165 4.24485,0 11.08184,8.51861 12.64085,15.750005 0.38537,1.7875 1.02633,3.25 1.42436,3.25 0.39802,0 2.56902,-2.61669 4.82443,-5.81486 5.89643,-8.361125 18.52456,-21.483565 24.1452,-25.090315 7.99332,-5.1293 13.20605,-3.56495 16.00925,4.80439 2.31853,6.92232 0.5906,25.235795 -3.82463,40.535275 -1.10066,3.81397 -1.81573,7.11996 -1.58905,7.34664 0.22668,0.22668 3.48116,-0.81934 7.23217,-2.32451 7.69363,-3.08721 16.94374,-3.83252 19.66122,-1.58418 0.99043,0.81945 1.65881,2.84049 1.65881,5.01587 0,4.51033 -4.26756,11.98259 -16.89583,29.5836 -5.11885,7.13455 -11.23106,16.80955 -13.58269,21.5 -4.36563,8.70746 -10.16236,24.7205399 -9.27137,25.6115299 0.48679,0.48679 32.96013,-32.9299899 44.29651,-45.5834399 23.469633,-26.19638 41.947253,-40.6719 53.301763,-41.75704 3.92261,-0.37489 5.07079,-0.0554 7.32624,2.03863 6.03419,5.60231 6.0076,16.95427 -0.0752,32.08825 -1.5762,3.92159 -2.71259,7.29845 -2.52531,7.50415 0.18727,0.20569 4.9722,-2.691 10.63317,-6.43709 13.09791,-8.66741 31.9511499,-18.44147 35.5334999,-18.42159 4.69346998,0.026 5.62278,1.34104 6.3195,8.94223 0.35721,3.89707 0.90991,7.34602 1.22822,7.66433 0.31831,0.31832 5.35985,0.52341 11.2034101,0.45577 12.98548,-0.15031 17.70497,1.12473 21.58463,5.83144 2.33112,2.82804 2.92342,4.51751 2.92342,8.33864 0,5.38719 -2.14972,9.41493 -10.16649,19.04806 -2.65843,3.19443 -4.83351,6.4626699 -4.83351,7.2627499 0,0.80008 1.21312,2.46422 2.69583,3.69808 8.05816,6.70577 9.15448,9.65649 5.02809,13.5330301 -3.26724,3.06941 -21.19581,11.26882 -35.4977901,16.23447 -6.75062,2.34382 -12.0818099,4.45354 -11.8470799,4.68827 0.23472,0.23473 3.04174,1.10964 6.2377999,1.94425 18.9848301,4.95762 30.3542001,15.4113 26.1774601,24.06909 -4.79045,9.9299 -25.9651101,16.16094 -67.29431,19.80261 -26.18855,2.30758 -62.652503,6.29084 -63.273573,6.9119 -0.94277,0.94277 8.58637,4.62684 18.580843,7.18355 7.69637,1.96883 14.73886,2.77003 34.19273,3.89 13.475,0.77576 26.02451,1.86389 27.88779,2.41806 11.00093,3.271845 8.83831,11.179735 -5.67477,20.750485 -6.78695,4.4757 -7.13004,4.86974 -5,5.74232 8.34865,3.42005 23.35995,10.861 27.43743,13.60045 7.2463699,4.86846 13.1831199,10.94058 14.4501099,14.7796 0.96649998,2.92853 0.84871998,3.7894 -0.8284,6.05462 -4.19693,5.66863 -19.5366799,9.08302 -40.9883299,9.12335 l -9.21616,0.0173 2.81909,4.25 c 7.33961,11.065 6.77488,20.76059 -1.20819,20.74299 -7.14567,-0.0157 -26.15866,-5.64968 -46.0757,-13.65316 -5.993423,-2.4084 -11.110163,-4.16587 -11.370553,-3.90549 -0.26038,0.26039 0.87203,2.18168 2.51648,4.26955 6.606473,8.38787 10.465113,19.15939 8.307553,23.19081 -3.519443,6.57614 -28.913553,-2.60851 -58.414723,-21.12768 -35.80694,-22.47759 -83.75127,-34.01912 -123.43104,-29.71328 -23.5058,2.55073 -40.35138,8.02193 -69.34909,22.52359 l -18.6385,9.32106 -1.11225,6.38706 c -0.61175,3.51288 -3.02442,13.09824 -5.36151,21.3008 l -4.2492,14.91378 0.11474,54 c 0.11449,53.87591 1.09934,86.49174 3.92542,130 1.64097,25.26317 4.86751,63.03908 6.55886,76.79022 1.42638,11.5969 0.1807,16.97436 -5.40099,23.3155 -2.26634,2.57469 -5.93803,5.50681 -8.15932,6.51581 -4.81651,2.18785 -12.48252,2.30716 -18.01955,0.28044 z"
       id="path16973" />
  </g>
</svg>
