<?xml version="1.0" encoding="UTF-8" standalone="no"?>
<!-- Created with Inkscape (http://www.inkscape.org/) -->

<svg
   version="1.1"
   id="svg15881"
   width="521.15137"
   height="563.27179"
   viewBox="0 0 521.15137 563.27179"
   sodipodi:docname="seasoning.svg"
   inkscape:version="1.1.1 (eb90963e84, 2021-10-02)"
   xmlns:inkscape="http://www.inkscape.org/namespaces/inkscape"
   xmlns:sodipodi="http://sodipodi.sourceforge.net/DTD/sodipodi-0.dtd"
   xmlns="http://www.w3.org/2000/svg"
   xmlns:svg="http://www.w3.org/2000/svg">
  <defs
     id="defs15885" />
  <sodipodi:namedview
     id="namedview15883"
     pagecolor="#ffffff"
     bordercolor="#ffffff"
     borderopacity="1"
     inkscape:pageshadow="0"
     inkscape:pageopacity="0"
     inkscape:pagecheckerboard="true"
     showgrid="false"
     inkscape:zoom="1.9065368"
     inkscape:cx="285.59638"
     inkscape:cy="229.21142"
     inkscape:window-width="1920"
     inkscape:window-height="1136"
     inkscape:window-x="0"
     inkscape:window-y="0"
     inkscape:window-maximized="1"
     inkscape:current-layer="g25524"
     fit-margin-top="0"
     fit-margin-left="0"
     fit-margin-right="0"
     fit-margin-bottom="0" />
  <g
     inkscape:groupmode="layer"
     inkscape:label="Image"
     id="g15887"
     transform="translate(170.1502,128.11886)">
    <g
       id="g25524"
       transform="translate(-182.97247,81.807361)">
      <path
         style="fill:#77868b"
         d="m 235.8412,280.4096 c -20.98796,-1.25008 -48.4515,-4.42989 -59,-6.83121 -25.60167,-5.82811 -50.12727,-18.3379 -72.08747,-36.76973 C 60.217107,199.42782 34.169074,148.48302 26.401854,83.5679 25.053017,72.29489 23.341204,47.26117 23.341204,38.80865 c 0,-16.74261 7.045762,-24.2709 36.508134,-39.00842 31.826754,-15.92022 75.674102,-26.15334 131.491862,-30.68763 52.42604,-4.25877 97.86565,-5.68913 99.44703,-3.13041 0.24996,0.40445 -1.91104,4.07669 -4.80224,8.16054 l -5.25672,7.42517 -20.44403,1.16653 c -48.75513,2.78195 -92.8769,6.78217 -114.31308,10.36397 -46.364776,7.74717 -84.362554,25.36096 -87.186755,40.41524 -2.70526,14.42028 27.304507,31.9098 71.055795,41.41091 35.17045,7.63769 93.2438,13.14508 138.5,13.13467 63.66074,-0.0146 136.72966,-9.39933 170.74656,-21.93003 10.12446,-3.72952 24.29261,-10.80283 30.03653,-14.99545 10.30595,-7.52255 11.78959,-18.99866 3.62457,-28.03637 -5.36312,-5.93633 -28.57699,-16.47719 -48.82036,-22.16815 -5.45199,-1.5327 -10.39525,-3.26927 -10.98502,-3.85904 -0.76308,-0.76308 -0.0673,-2.95384 2.4127,-7.59688 1.91676,-3.58851 4.07657,-7.02696 4.79958,-7.641 3.30098,-2.8035 39.08749,9.35927 68.68544,23.34414 8.50752,4.01976 19.00903,14.03373 22.43293,21.39146 2.26427,4.86576 2.31181,5.55038 1.77104,25.5 -1.21184,44.70513 -9.38585,80.62044 -26.10238,114.68966 -17.38979,35.44133 -39.11771,60.83839 -69.89513,81.69812 -25.41322,17.2241 -48.92971,25.74842 -80.20646,29.07349 -28.56641,3.03693 -75.77035,4.38314 -101,2.88043 z M 234.94421,68.23457 c -0.38787,-0.62758 11.46027,-17.88931 27.03786,-39.39189 37.47624,-51.73041 76.56965,-105.62504 95.94785,-132.27478 8.79844,-12.1 20.45278,-28.1875 25.89854,-35.75 5.44576,-7.5625 10.56677,-13.75 11.38002,-13.75 1.281,0 9.44053,4.98154 40.13272,24.50172 3.575,2.2737 10.02363,6.34238 14.33029,9.04153 4.30665,2.69915 8.02116,5.2164 8.25447,5.59389 0.38685,0.62595 -5.55432,11.47256 -39.08862,71.36286 -6.15922,11 -17.61477,31.475 -25.45678,45.5 -22.49519,40.23136 -32.37605,57.33669 -34.13854,59.09918 -1.61658,1.61658 -4.3599,2.00726 -34.90082,4.97019 -16.237,1.57524 -88.55302,2.46288 -89.39699,1.0973 z M 468.576,-114.91197 c -10.56219,-4.79412 -67.76299,-41.42401 -73.99918,-47.38712 -6.62337,-6.33334 -7.34105,-12.4631 -2.28975,-19.55699 4.98522,-7.0011 12.19209,-6.17009 27.55413,3.17722 37.92064,23.07348 62.83139,39.86892 65.95845,44.4708 3.16824,4.66248 3.33494,10.25616 0.44501,14.93217 -3.90209,6.31371 -10.03548,7.82857 -17.66866,4.36392 z"
         id="path25530" />
      <path
         style="fill:#762626;fill-opacity:1"
         d="m 227.16322,277.98733 c -17.58829,-1.19157 -39.28887,-3.82974 -48.82205,-5.93536 -31.6852,-6.9984 -60.41208,-23.36629 -85.997655,-48.99942 C 51.142293,181.77478 31.585146,134.01054 26.223351,61.5679 24.121939,33.17595 24.652298,28.59309 31.002974,20.26692 36.188322,13.46858 61.936325,-0.70831 82.237719,-7.943 120.74298,-21.66491 155.62776,-27.19208 233.67181,-31.93634 c 35.47545,-2.15654 53.22909,-2.5172 54.1055,-1.09914 0.30477,0.49314 -1.46774,3.64314 -3.93892,7 -4.42225,6.0072 -4.5691,6.10338 -9.31847,6.10338 -6.12175,0 -69.36957,4.54919 -91.17872,6.55816 C 129.69815,-8.43256 92.17187,1.90679 69.585511,17.96834 52.965784,29.78691 52.657604,40.89828 68.621539,52.72414 93.527163,71.17389 140.84839,82.4387 216.8412,88.00782 c 64.12169,4.69915 139.64613,-0.13158 195.86494,-12.528 30.9443,-6.82332 59.58858,-20.68621 65.21184,-31.56039 2.1027,-4.06617 1.79083,-12.4607 -0.65027,-17.50334 -1.14042,-2.35579 -3.95292,-5.67396 -6.25,-7.3737 -7.64467,-5.65673 -29.4352,-14.95604 -46.02011,-19.63951 -5.03602,-1.42214 -9.53974,-2.93513 -10.00826,-3.3622 -0.46852,-0.42707 0.69991,-3.40816 2.59651,-6.62464 3.2025,-5.4312 3.69101,-5.83386 6.85185,-5.6479 12.09926,0.71183 61.36024,20.00373 72.68401,28.46497 6.71015,5.01389 11.77973,11.86343 13.81346,18.66347 2.78035,9.2964 -0.39003,51.97331 -5.7329,77.17132 -13.72956,64.75129 -50.6392,118.40324 -100.4312,145.98705 -29.17651,16.16323 -47.30438,20.77047 -94.42987,23.9996 -16.65172,1.14101 -65.93162,1.10118 -83.17798,-0.0672 z M 235.3412,67.17607 c 0,-0.59826 15.60591,-22.57984 34.67981,-48.84796 19.07389,-26.26811 50.1854,-69.13521 69.13669,-95.26021 55.40779,-76.38155 55.25955,-76.1848 56.92037,-75.54748 3.23369,1.24089 60.51209,38.03269 60.93795,39.14246 0.24905,0.64901 -9.85424,19.56814 -22.45175,42.04252 -12.59751,22.47437 -30.45348,54.3625 -39.67992,70.8625 -28.94058,51.75554 -34.67768,61.54355 -36.89132,62.93992 -4.39886,2.77482 -35.19873,4.81657 -79.90183,5.29678 -30.41389,0.32671 -42.75,0.14534 -42.75,-0.62853 z m 229.5,-184.4089 c -8.19625,-4.44687 -45.42032,-27.85275 -59.48292,-37.40187 -12.26741,-8.33011 -16.01708,-12.5428 -16.01708,-17.99494 0,-10.14034 9.5174,-16.0417 19.28212,-11.95608 3.97108,1.66153 35.46291,21.16125 56.54692,35.01383 21.09802,13.86177 24.79316,18.28199 22.28404,26.65669 -2.78643,9.30028 -11.77952,11.56012 -22.61308,5.68237 z"
         id="path25528" />
      <path
         style="fill:#374151;fill-opacity:1"
         d="m 227.16322,277.98733 c -17.58829,-1.19157 -39.28887,-3.82974 -48.82205,-5.93536 -31.6852,-6.9984 -60.41208,-23.36629 -85.997655,-48.99942 C 51.142293,181.77478 31.585146,134.01054 26.223351,61.5679 24.121939,33.17595 24.652298,28.59309 31.002974,20.26692 36.188322,13.46858 61.936325,-0.70831 82.237719,-7.943 120.74298,-21.66491 155.62776,-27.19208 233.67181,-31.93634 c 35.47545,-2.15654 53.22909,-2.5172 54.1055,-1.09914 0.30477,0.49314 -1.46774,3.64314 -3.93892,7 -4.42225,6.0072 -4.5691,6.10338 -9.31847,6.10338 -6.12175,0 -69.36957,4.54919 -91.17872,6.55816 C 129.69815,-8.43256 92.17187,1.90679 69.585511,17.96834 52.965784,29.78691 52.657604,40.89828 68.621539,52.72414 93.527163,71.17389 140.84839,82.4387 216.8412,88.00782 c 64.12169,4.69915 139.64613,-0.13158 195.86494,-12.528 30.9443,-6.82332 59.58858,-20.68621 65.21184,-31.56039 2.1027,-4.06617 1.79083,-12.4607 -0.65027,-17.50334 -1.14042,-2.35579 -3.95292,-5.67396 -6.25,-7.3737 -7.64467,-5.65673 -29.4352,-14.95604 -46.02011,-19.63951 -5.03602,-1.42214 -9.53974,-2.93513 -10.00826,-3.3622 -0.46852,-0.42707 0.69991,-3.40816 2.59651,-6.62464 3.2025,-5.4312 3.69101,-5.83386 6.85185,-5.6479 12.09926,0.71183 61.36024,20.00373 72.68401,28.46497 6.71015,5.01389 11.77973,11.86343 13.81346,18.66347 2.78035,9.2964 -0.39003,51.97331 -5.7329,77.17132 -13.72956,64.75129 -50.6392,118.40324 -100.4312,145.98705 -29.17651,16.16323 -47.30438,20.77047 -94.42987,23.9996 -16.65172,1.14101 -65.93162,1.10118 -83.17798,-0.0672 z"
         id="path25526" />
    </g>
  </g>
</svg>
